<svg
  width="24"
  height="24"
  viewBox="0 0 24 24"
  fill="none"
  xmlns="http://www.w3.org/2000/svg"
>
<rect width="24" height="24" rx="12" fill="#223F63" />
<path
    d="M8.9794 17V15.8864L12.4247 12.3168C12.7926 11.929 13.0959 11.5893 13.3345 11.2976C13.5765 11.0026 13.7571 10.7225 13.8764 10.4574C13.9957 10.1922 14.0554 9.91051 14.0554 9.61222C14.0554 9.27415 13.9759 8.98248 13.8168 8.73722C13.6577 8.48864 13.4406 8.29806 13.1655 8.16548C12.8904 8.02959 12.5805 7.96165 12.2358 7.96165C11.8712 7.96165 11.553 8.03622 11.2812 8.18537C11.0095 8.33452 10.8007 8.54498 10.6548 8.81676C10.509 9.08854 10.4361 9.40672 10.4361 9.77131H8.96946C8.96946 9.15151 9.11198 8.60961 9.39702 8.1456C9.68205 7.68158 10.0732 7.32197 10.5703 7.06676C11.0675 6.80824 11.6326 6.67898 12.2656 6.67898C12.9053 6.67898 13.4688 6.80658 13.956 7.06179C14.4465 7.31368 14.8293 7.65838 15.1044 8.09588C15.3795 8.53007 15.517 9.0206 15.517 9.56747C15.517 9.94531 15.4458 10.3149 15.3033 10.6761C15.1641 11.0374 14.9205 11.4401 14.5724 11.8842C14.2244 12.325 13.7405 12.8603 13.1207 13.4901L11.0973 15.608V15.6825H15.6811V17H8.9794Z"
    fill="white"
  />
</svg>
