<svg width="24" height="24" viewBox="0 0 24 24" fill="none" xmlns="http://www.w3.org/2000/svg">
<g clip-path="url(#clip0_502_4722)">
<rect width="24" height="24" rx="12" fill="url(#paint0_linear_502_4722)"/>
<mask id="mask0_502_4722" style="mask-type:alpha" maskUnits="userSpaceOnUse" x="0" y="0" width="24" height="24">
<rect width="24" height="24" fill="white"/>
</mask>
<g mask="url(#mask0_502_4722)">
<path d="M9.55211 17.5749C9.41877 17.5749 9.29377 17.5541 9.17711 17.5124C9.06044 17.4707 8.95211 17.3999 8.85211 17.2999L4.55211 12.9999C4.36877 12.8166 4.28127 12.5791 4.28961 12.2874C4.29794 11.9957 4.39377 11.7582 4.57711 11.5749C4.76044 11.3916 4.99377 11.2999 5.27711 11.2999C5.56044 11.2999 5.79377 11.3916 5.97711 11.5749L9.55211 15.1499L18.0271 6.6749C18.2104 6.49157 18.4479 6.3999 18.7396 6.3999C19.0313 6.3999 19.2688 6.49157 19.4521 6.6749C19.6354 6.85824 19.7271 7.09574 19.7271 7.3874C19.7271 7.67907 19.6354 7.91657 19.4521 8.0999L10.2521 17.2999C10.1521 17.3999 10.0438 17.4707 9.92711 17.5124C9.81044 17.5541 9.68544 17.5749 9.55211 17.5749Z" fill="white"/>
</g>
</g>
<defs>
<linearGradient id="paint0_linear_502_4722" x1="-9.1476e-06" y1="-87.2999" x2="38.798" y2="-84.4398" gradientUnits="userSpaceOnUse">
<stop stop-color="#1CAF59"/>
<stop offset="1" stop-color="#158D47"/>
</linearGradient>
<clipPath id="clip0_502_4722">
<rect width="24" height="24" rx="12" fill="white"/>
</clipPath>
</defs>
</svg>
