<svg width="16" height="12" viewBox="0 0 16 12" fill="none" xmlns="http://www.w3.org/2000/svg">
<path d="M5.54866 11.5754C5.41532 11.5754 5.29032 11.5544 5.17366 11.5124C5.05699 11.4711 4.94866 11.4004 4.84866 11.3004L0.548658 7.00039C0.365325 6.81706 0.277658 6.57939 0.285658 6.28739C0.294325 5.99606 0.390324 5.75872 0.573658 5.57539C0.756991 5.39206 0.990325 5.30039 1.27366 5.30039C1.55699 5.30039 1.79032 5.39206 1.97366 5.57539L5.54866 9.15039L14.0237 0.675391C14.207 0.492057 14.4447 0.400391 14.7367 0.400391C15.028 0.400391 15.2653 0.492057 15.4487 0.675391C15.632 0.858724 15.7237 1.09606 15.7237 1.38739C15.7237 1.67939 15.632 1.91706 15.4487 2.10039L6.24866 11.3004C6.14866 11.4004 6.04032 11.4711 5.92366 11.5124C5.80699 11.5544 5.68199 11.5754 5.54866 11.5754Z" fill="#158D47"/>
</svg>
