<svg width="52" height="52" viewBox="0 0 52 52" fill="none" xmlns="http://www.w3.org/2000/svg">
<rect x="0.5" y="0.5" width="51" height="51" rx="7.5" fill="white"/>
<mask id="mask0_785_18379" style="mask-type:alpha" maskUnits="userSpaceOnUse" x="14" y="14" width="24" height="24">
<rect x="14" y="14" width="24" height="24" fill="#223F63"/>
</mask>
<g mask="url(#mask0_785_18379)">
<path d="M24.875 33.3001L18.275 26.7001C18.175 26.6001 18.104 26.4917 18.062 26.3751C18.0207 26.2584 18 26.1334 18 26.0001C18 25.8667 18.0207 25.7417 18.062 25.6251C18.104 25.5084 18.175 25.4001 18.275 25.3001L24.875 18.7001C25.0583 18.5167 25.2873 18.4207 25.562 18.4121C25.8373 18.4041 26.075 18.5001 26.275 18.7001C26.475 18.8834 26.5793 19.1124 26.588 19.3871C26.596 19.6624 26.5 19.9001 26.3 20.1001L21.4 25.0001H32.575C32.8583 25.0001 33.096 25.0957 33.288 25.2871C33.4793 25.4791 33.575 25.7167 33.575 26.0001C33.575 26.2834 33.4793 26.5207 33.288 26.7121C33.096 26.9041 32.8583 27.0001 32.575 27.0001H21.4L26.3 31.9001C26.4833 32.0834 26.5793 32.3167 26.588 32.6001C26.596 32.8834 26.5 33.1167 26.3 33.3001C26.1167 33.5001 25.8833 33.6001 25.6 33.6001C25.3167 33.6001 25.075 33.5001 24.875 33.3001Z" fill="#223F63"/>
</g>
<rect x="0.5" y="0.5" width="51" height="51" rx="7.5" stroke="#E6E6E6"/>
</svg>
