<svg width="24" height="24" viewBox="0 0 24 24" fill="none" xmlns="http://www.w3.org/2000/svg">
<g id="apartment">
<mask id="mask0_811_27210" style="mask-type:alpha" maskUnits="userSpaceOnUse" x="0" y="0" width="24" height="24">
<rect id="Bounding box" width="24" height="24" fill="#D9D9D9"/>
</mask>
<g mask="url(#mask0_811_27210)">
<path id="apartment_2" d="M3.5 20.15V7.15002H7.5V3.15002H16.5V11.15H20.5V20.15H13.5V16.15H10.5V20.15H3.5ZM4.5 19.15H7.5V16.15H4.5V19.15ZM4.5 15.15H7.5V12.15H4.5V15.15ZM4.5 11.15H7.5V8.15002H4.5V11.15ZM8.5 15.15H11.5V12.15H8.5V15.15ZM8.5 11.15H11.5V8.15002H8.5V11.15ZM8.5 7.15002H11.5V4.15002H8.5V7.15002ZM12.5 15.15H15.5V12.15H12.5V15.15ZM12.5 11.15H15.5V8.15002H12.5V11.15ZM12.5 7.15002H15.5V4.15002H12.5V7.15002ZM16.5 19.15H19.5V16.15H16.5V19.15ZM16.5 15.15H19.5V12.15H16.5V15.15Z" fill="#1E1E1E"/>
</g>
</g>
</svg>
