<svg width="14" height="14" viewBox="0 0 14 14" fill="none" xmlns="http://www.w3.org/2000/svg">
<path d="M7.00469 8.40469L2.10469 13.3047C1.92135 13.488 1.68802 13.5797 1.40469 13.5797C1.12135 13.5797 0.88802 13.488 0.704687 13.3047C0.521354 13.1214 0.429688 12.888 0.429688 12.6047C0.429688 12.3214 0.521354 12.088 0.704687 11.9047L5.60469 7.00469L0.704687 2.10469C0.521354 1.92135 0.429688 1.68802 0.429688 1.40469C0.429688 1.12135 0.521354 0.88802 0.704687 0.704687C0.88802 0.521354 1.12135 0.429688 1.40469 0.429688C1.68802 0.429688 1.92135 0.521354 2.10469 0.704687L7.00469 5.60469L11.9047 0.704687C12.088 0.521354 12.3214 0.429688 12.6047 0.429688C12.888 0.429688 13.1214 0.521354 13.3047 0.704687C13.488 0.88802 13.5797 1.12135 13.5797 1.40469C13.5797 1.68802 13.488 1.92135 13.3047 2.10469L8.40469 7.00469L13.3047 11.9047C13.488 12.088 13.5797 12.3214 13.5797 12.6047C13.5797 12.888 13.488 13.1214 13.3047 13.3047C13.1214 13.488 12.888 13.5797 12.6047 13.5797C12.3214 13.5797 12.088 13.488 11.9047 13.3047L7.00469 8.40469Z" fill="#929292"/>
</svg>
