<svg width="24" height="24" viewBox="0 0 24 24" fill="none" xmlns="http://www.w3.org/2000/svg">
<mask id="mask0_2220_3276" style="mask-type:alpha" maskUnits="userSpaceOnUse" x="0" y="0" width="24" height="24">
<rect width="24" height="24" fill="#D9D9D9"/>
</mask>
<g mask="url(#mask0_2220_3276)">
<path d="M3.5 20.1499V7.1499H7.5V3.1499H16.5V11.1499H20.5V20.1499H13.5V16.1499H10.5V20.1499H3.5ZM4.5 19.1499H7.5V16.1499H4.5V19.1499ZM4.5 15.1499H7.5V12.1499H4.5V15.1499ZM4.5 11.1499H7.5V8.1499H4.5V11.1499ZM8.5 15.1499H11.5V12.1499H8.5V15.1499ZM8.5 11.1499H11.5V8.1499H8.5V11.1499ZM8.5 7.1499H11.5V4.1499H8.5V7.1499ZM12.5 15.1499H15.5V12.1499H12.5V15.1499ZM12.5 11.1499H15.5V8.1499H12.5V11.1499ZM12.5 7.1499H15.5V4.1499H12.5V7.1499ZM16.5 19.1499H19.5V16.1499H16.5V19.1499ZM16.5 15.1499H19.5V12.1499H16.5V15.1499Z" fill="white"/>
</g>
</svg>
