<svg width="24" height="24" viewBox="0 0 24 24" fill="none" xmlns="http://www.w3.org/2000/svg">
<mask id="mask0_2220_3303" style="mask-type:alpha" maskUnits="userSpaceOnUse" x="0" y="0" width="24" height="24">
<rect width="24" height="24" fill="#D9D9D9"/>
</mask>
<g mask="url(#mask0_2220_3303)">
<path d="M15.9212 15.6789C15.8148 15.5647 15.7616 15.4439 15.7616 15.3163C15.7616 15.1888 15.8148 15.0718 15.9212 14.9654L17.8866 13H9.73086C9.58854 13 9.46963 12.9522 9.37413 12.8567C9.27862 12.7612 9.23086 12.6423 9.23086 12.5C9.23086 12.3577 9.27862 12.2388 9.37413 12.1433C9.46963 12.0478 9.58854 12 9.73086 12H17.8866L15.902 10.0154C15.8046 9.91794 15.7559 9.80544 15.7559 9.67788C15.7559 9.55031 15.811 9.4314 15.9212 9.32115C16.0276 9.21088 16.1446 9.15575 16.2722 9.15575C16.3998 9.15575 16.5167 9.20896 16.6232 9.31537L19.2424 11.9346C19.3296 12.0218 19.3908 12.1109 19.4261 12.2019C19.4613 12.2929 19.4789 12.3923 19.4789 12.5C19.4789 12.6077 19.4613 12.707 19.4261 12.7981C19.3908 12.8891 19.3296 12.9782 19.2424 13.0654L16.6039 15.7038C16.5026 15.8051 16.3901 15.8529 16.2664 15.8471C16.1427 15.8414 16.0276 15.7853 15.9212 15.6789ZM5.80776 21C5.34751 21 4.96322 20.8458 4.65488 20.5375C4.34655 20.2292 4.19238 19.8449 4.19238 19.3846V5.61537C4.19238 5.15512 4.34655 4.77083 4.65488 4.4625C4.96322 4.15417 5.34751 4 5.80776 4H11.7309C11.8732 4 11.9921 4.04776 12.0876 4.14327C12.1831 4.23877 12.2309 4.35768 12.2309 4.5C12.2309 4.6423 12.1831 4.76121 12.0876 4.85673C11.9921 4.95224 11.8732 5 11.7309 5H5.80776C5.65392 5 5.51291 5.0641 5.38471 5.1923C5.25649 5.32052 5.19238 5.46154 5.19238 5.61537V19.3846C5.19238 19.5385 5.25649 19.6795 5.38471 19.8077C5.51291 19.9359 5.65392 20 5.80776 20H11.7309C11.8732 20 11.9921 20.0478 12.0876 20.1433C12.1831 20.2388 12.2309 20.3577 12.2309 20.5C12.2309 20.6423 12.1831 20.7612 12.0876 20.8567C11.9921 20.9522 11.8732 21 11.7309 21H5.80776Z" fill="#1C1B1F"/>
</g>
</svg>
