<svg width="17" height="17" viewBox="0 0 17 17" fill="none" xmlns="http://www.w3.org/2000/svg">
<path d="M16.125 16.7999L10.225 10.8999C9.72505 11.3166 9.15005 11.6416 8.50005 11.8749C7.85005 12.1082 7.20005 12.2249 6.55005 12.2249C4.93338 12.2249 3.57105 11.6706 2.46305 10.5619C1.35438 9.4539 0.800049 8.0999 0.800049 6.4999C0.800049 4.8999 1.35438 3.54557 2.46305 2.4369C3.57105 1.3289 4.92505 0.774902 6.52505 0.774902C8.12505 0.774902 9.48338 1.3289 10.6 2.4369C11.7167 3.54557 12.275 4.8999 12.275 6.4999C12.275 7.1999 12.15 7.8749 11.9 8.5249C11.65 9.1749 11.325 9.7249 10.925 10.1749L16.875 16.1249C16.9584 16.2082 17 16.3126 17 16.4379C17 16.5626 16.9417 16.6832 16.8251 16.7999C16.725 16.8999 16.6127 16.9499 16.488 16.9499C16.3627 16.9499 16.2417 16.8999 16.125 16.7999ZM6.55005 11.2249C7.86672 11.2249 8.98338 10.7709 9.90005 9.8629C10.8167 8.95424 11.275 7.83324 11.275 6.4999C11.275 5.16657 10.8167 4.04557 9.90005 3.1369C8.98338 2.2289 7.86672 1.7749 6.55005 1.7749C5.21672 1.7749 4.09172 2.2289 3.17505 3.1369C2.25838 4.04557 1.80005 5.16657 1.80005 6.4999C1.80005 7.83324 2.25838 8.95424 3.17505 9.8629C4.09172 10.7709 5.21672 11.2249 6.55005 11.2249Z" fill="#223F63"/>
</svg>
