<svg width="28" height="36" viewBox="0 0 28 36" fill="none" xmlns="http://www.w3.org/2000/svg">
<path d="M3.23075 36C2.31025 36 1.54167 35.6917 0.925 35.075C0.308333 34.4583 0 33.6898 0 32.7693V3.23075C0 2.31025 0.308333 1.54167 0.925 0.925C1.54167 0.308333 2.31025 0 3.23075 0H17.6577C18.0885 0 18.507 0.0871835 18.9135 0.26155C19.3199 0.435883 19.6679 0.667934 19.9577 0.9577L27.0423 8.0423C27.3321 8.33207 27.5641 8.68015 27.7384 9.08655C27.9128 9.49295 28 9.91153 28 10.3423V32.7693C28 33.6898 27.6917 34.4583 27.075 35.075C26.4583 35.6917 25.6898 36 24.7693 36H3.23075ZM18 8.38465C18 8.84875 18.1532 9.234 18.4596 9.5404C18.766 9.8468 19.1513 10 19.6154 10H26L18 2V8.38465ZM11.8885 24.8654L8.31925 21.2961C8.22182 21.1987 8.11412 21.1256 7.99615 21.0769C7.87822 21.0282 7.75835 21.0039 7.63655 21.0039C7.51475 21.0039 7.38653 21.0282 7.2519 21.0769C7.1173 21.1256 7.00128 21.1987 6.90385 21.2961C6.68332 21.5167 6.57305 21.7545 6.57305 22.0096C6.57305 22.2647 6.68332 22.5026 6.90385 22.7231L10.7693 26.6C10.9436 26.7744 11.1218 26.8968 11.3039 26.9673C11.4859 27.0378 11.6846 27.0731 11.9 27.0731C12.1154 27.0731 12.3141 27.0378 12.4962 26.9673C12.6782 26.8968 12.8564 26.7744 13.0307 26.6L21.0961 18.5347C21.291 18.3398 21.3949 18.1064 21.4077 17.8346C21.4205 17.5628 21.3167 17.3167 21.0961 17.0961C20.8756 16.8756 20.6359 16.7654 20.3769 16.7654C20.1179 16.7654 19.8782 16.8756 19.6577 17.0961L11.8885 24.8654Z" fill="#158D47"/>
</svg>
