<svg width="29" height="29" viewBox="0 0 29 29" fill="none" xmlns="http://www.w3.org/2000/svg">
<path d="M14.5 21.462C14.2154 21.462 13.9775 21.3665 13.7865 21.1754C13.5955 20.9844 13.5 20.7466 13.5 20.462V4.16197L9.5577 8.10427C9.36283 8.29914 9.13333 8.40299 8.8692 8.41582C8.6051 8.42865 8.35895 8.32095 8.13075 8.09272C7.91025 7.87222 7.80192 7.6344 7.80575 7.37927C7.80958 7.12414 7.91792 6.89017 8.13075 6.67737L13.3693 1.43887C13.5436 1.2645 13.7218 1.14207 13.9038 1.07157C14.0859 1.00107 14.2846 0.96582 14.5 0.96582C14.7154 0.96582 14.9141 1.00107 15.0962 1.07157C15.2782 1.14207 15.4564 1.2645 15.6307 1.43887L20.8693 6.67737C21.0641 6.87224 21.166 7.10364 21.175 7.37157C21.184 7.63954 21.0821 7.87992 20.8693 8.09272C20.6487 8.31325 20.4109 8.42544 20.1558 8.42927C19.9007 8.43314 19.6628 8.3248 19.4423 8.10427L15.5 4.16197V20.462C15.5 20.7466 15.4045 20.9844 15.2135 21.1754C15.0225 21.3665 14.7846 21.462 14.5 21.462ZM3.73075 29.0004C2.81025 29.0004 2.04167 28.6921 1.425 28.0754C0.808333 27.4588 0.5 26.6902 0.5 25.7697V22.0004C0.5 21.7158 0.595517 21.478 0.78655 21.287C0.97755 21.0959 1.21537 21.0004 1.5 21.0004C1.7846 21.0004 2.02242 21.0959 2.21345 21.287C2.40448 21.478 2.5 21.7158 2.5 22.0004V25.7697C2.5 26.0773 2.6282 26.3594 2.8846 26.6158C3.14103 26.8722 3.42308 27.0004 3.73075 27.0004H25.2693C25.5769 27.0004 25.859 26.8722 26.1154 26.6158C26.3718 26.3594 26.5 26.0773 26.5 25.7697V22.0004C26.5 21.7158 26.5955 21.478 26.7866 21.287C26.9776 21.0959 27.2154 21.0004 27.5 21.0004C27.7846 21.0004 28.0224 21.0959 28.2134 21.287C28.4045 21.478 28.5 21.7158 28.5 22.0004V25.7697C28.5 26.6902 28.1917 27.4588 27.575 28.0754C26.9583 28.6921 26.1898 29.0004 25.2693 29.0004H3.73075Z" fill="#929292"/>
</svg>
