<svg width="24" height="24" viewBox="0 0 24 24" fill="none" xmlns="http://www.w3.org/2000/svg">
<mask id="mask0_1180_12432" style="mask-type:alpha" maskUnits="userSpaceOnUse" x="0" y="0" width="24" height="24">
<rect width="24" height="24" fill="#D9D9D9"/>
</mask>
<g mask="url(#mask0_1180_12432)">
<path d="M10.55 13.975L8.075 11.475C7.975 11.3917 7.85833 11.3457 7.725 11.337C7.59167 11.329 7.46667 11.375 7.35 11.475C7.25 11.5917 7.2 11.7123 7.2 11.837C7.2 11.9623 7.25 12.0833 7.35 12.2L10 14.825C10.1667 14.9917 10.354 15.075 10.562 15.075C10.7707 15.075 10.9583 14.9917 11.125 14.825L16.6 9.35C16.7 9.26667 16.7543 9.154 16.763 9.012C16.771 8.87067 16.7167 8.75 16.6 8.65C16.5 8.53333 16.3833 8.475 16.25 8.475C16.1167 8.475 16 8.53333 15.9 8.65L10.55 13.975ZM5.625 19H18.375C18.5417 19 18.6873 18.9373 18.812 18.812C18.9373 18.6873 19 18.5417 19 18.375V5.625C19 5.45833 18.9373 5.31267 18.812 5.188C18.6873 5.06267 18.5417 5 18.375 5H5.625C5.45833 5 5.31267 5.06267 5.188 5.188C5.06267 5.31267 5 5.45833 5 5.625V18.375C5 18.5417 5.06267 18.6873 5.188 18.812C5.31267 18.9373 5.45833 19 5.625 19ZM5.625 20C5.175 20 4.79167 19.8417 4.475 19.525C4.15833 19.2083 4 18.825 4 18.375V5.625C4 5.175 4.15833 4.79167 4.475 4.475C4.79167 4.15833 5.175 4 5.625 4H10.325C10.225 3.48333 10.3417 3.02067 10.675 2.612C11.0083 2.204 11.45 2 12 2C12.55 2 12.996 2.204 13.338 2.612C13.6793 3.02067 13.7917 3.48333 13.675 4H18.375C18.825 4 19.2083 4.15833 19.525 4.475C19.8417 4.79167 20 5.175 20 5.625V18.375C20 18.825 19.8417 19.2083 19.525 19.525C19.2083 19.8417 18.825 20 18.375 20H5.625ZM12 4.45C12.2167 4.45 12.396 4.379 12.538 4.237C12.6793 4.09567 12.75 3.91667 12.75 3.7C12.75 3.48333 12.6793 3.304 12.538 3.162C12.396 3.02067 12.2167 2.95 12 2.95C11.7833 2.95 11.6043 3.02067 11.463 3.162C11.321 3.304 11.25 3.48333 11.25 3.7C11.25 3.91667 11.321 4.09567 11.463 4.237C11.6043 4.379 11.7833 4.45 12 4.45Z" fill="white"/>
</g>
</svg>
