<svg width="24" height="24" viewBox="0 0 24 24" fill="none" xmlns="http://www.w3.org/2000/svg">
<mask id="mask0_1180_12420" style="mask-type:alpha" maskUnits="userSpaceOnUse" x="0" y="0" width="24" height="24">
<rect width="24" height="24" fill="#D9D9D9"/>
</mask>
<g mask="url(#mask0_1180_12420)">
<path d="M5.625 20C5.175 20 4.79167 19.8417 4.475 19.525C4.15833 19.2083 4 18.825 4 18.375V5.625C4 5.175 4.15833 4.79167 4.475 4.475C4.79167 4.15833 5.175 4 5.625 4H10.25C10.35 3.61667 10.5583 3.29167 10.875 3.025C11.1917 2.75833 11.5667 2.625 12 2.625C12.4333 2.625 12.8123 2.75833 13.137 3.025C13.4623 3.29167 13.6667 3.61667 13.75 4H18.375C18.825 4 19.2083 4.15833 19.525 4.475C19.8417 4.79167 20 5.175 20 5.625V10.7H19V5.625C19 5.44167 18.9417 5.29167 18.825 5.175C18.7083 5.05833 18.5583 5 18.375 5H16V5.625C16 6.05833 15.8417 6.43333 15.525 6.75C15.2083 7.06667 14.825 7.225 14.375 7.225H9.625C9.175 7.225 8.79167 7.06667 8.475 6.75C8.15833 6.43333 8 6.05833 8 5.625V5H5.625C5.44167 5 5.29167 5.05833 5.175 5.175C5.05833 5.29167 5 5.44167 5 5.625V18.375C5 18.5583 5.05833 18.7083 5.175 18.825C5.29167 18.9417 5.44167 19 5.625 19H10.7V20H5.625ZM20.35 21.075L18.175 18.9C17.825 19.1167 17.4833 19.2793 17.15 19.388C16.8167 19.496 16.475 19.55 16.125 19.55C15.175 19.55 14.3667 19.2167 13.7 18.55C13.0333 17.8833 12.7 17.0667 12.7 16.1C12.7 15.15 13.0333 14.346 13.7 13.688C14.3667 13.0293 15.175 12.7 16.125 12.7C17.075 12.7 17.8833 13.0333 18.55 13.7C19.2167 14.3667 19.55 15.175 19.55 16.125C19.55 16.525 19.4833 16.9083 19.35 17.275C19.2167 17.6417 19.0583 17.9417 18.875 18.175L21.075 20.35C21.1583 20.45 21.2043 20.5667 21.213 20.7C21.221 20.8333 21.175 20.9583 21.075 21.075C20.975 21.1583 20.8583 21.2 20.725 21.2C20.5917 21.2 20.4667 21.1583 20.35 21.075ZM16.125 18.55C16.8083 18.55 17.3833 18.3167 17.85 17.85C18.3167 17.3833 18.55 16.8083 18.55 16.125C18.55 15.425 18.3167 14.8457 17.85 14.387C17.3833 13.929 16.8083 13.7 16.125 13.7C15.425 13.7 14.846 13.929 14.388 14.387C13.9293 14.8457 13.7 15.425 13.7 16.125C13.7 16.8083 13.9293 17.3833 14.388 17.85C14.846 18.3167 15.425 18.55 16.125 18.55ZM12 5.225C12.2333 5.225 12.425 5.15 12.575 5C12.725 4.85 12.8 4.65833 12.8 4.425C12.8 4.19167 12.725 4 12.575 3.85C12.425 3.7 12.2333 3.625 12 3.625C11.7667 3.625 11.575 3.7 11.425 3.85C11.275 4 11.2 4.19167 11.2 4.425C11.2 4.65833 11.275 4.85 11.425 5C11.575 5.15 11.7667 5.225 12 5.225Z" fill="white"/>
</g>
</svg>
