<svg width="24" height="24" viewBox="0 0 24 24" fill="none" xmlns="http://www.w3.org/2000/svg">
<mask id="mask0_1180_12414" style="mask-type:alpha" maskUnits="userSpaceOnUse" x="0" y="0" width="24" height="24">
<rect width="24" height="24" fill="#D9D9D9"/>
</mask>
<g mask="url(#mask0_1180_12414)">
<path d="M12 5.225C12.2333 5.225 12.425 5.15 12.575 5C12.725 4.85 12.8 4.65833 12.8 4.425C12.8 4.19167 12.725 4 12.575 3.85C12.425 3.7 12.2333 3.625 12 3.625C11.7667 3.625 11.575 3.7 11.425 3.85C11.275 4 11.2 4.19167 11.2 4.425C11.2 4.65833 11.275 4.85 11.425 5C11.575 5.15 11.7667 5.225 12 5.225ZM5.625 20C5.175 20 4.79167 19.8417 4.475 19.525C4.15833 19.2083 4 18.825 4 18.375V5.625C4 5.175 4.15833 4.79167 4.475 4.475C4.79167 4.15833 5.175 4 5.625 4H10.25C10.35 3.61667 10.5583 3.29167 10.875 3.025C11.1917 2.75833 11.5667 2.625 12 2.625C12.4333 2.625 12.8123 2.75833 13.137 3.025C13.4623 3.29167 13.6667 3.61667 13.75 4H18.375C18.825 4 19.2083 4.15833 19.525 4.475C19.8417 4.79167 20 5.175 20 5.625V18.375C20 18.825 19.8417 19.2083 19.525 19.525C19.2083 19.8417 18.825 20 18.375 20H5.625ZM5.625 19H18.375C18.5417 19 18.6873 18.9373 18.812 18.812C18.9373 18.6873 19 18.5417 19 18.375V5.625C19 5.45833 18.9373 5.31267 18.812 5.188C18.6873 5.06267 18.5417 5 18.375 5H16V5.625C16 6.05833 15.8417 6.43333 15.525 6.75C15.2083 7.06667 14.825 7.225 14.375 7.225H9.625C9.175 7.225 8.79167 7.06667 8.475 6.75C8.15833 6.43333 8 6.05833 8 5.625V5H5.625C5.45833 5 5.31267 5.06267 5.188 5.188C5.06267 5.31267 5 5.45833 5 5.625V18.375C5 18.5417 5.06267 18.6873 5.188 18.812C5.31267 18.9373 5.45833 19 5.625 19Z" fill="white"/>
</g>
</svg>
