<svg width="24" height="24" viewBox="0 0 24 24" fill="none" xmlns="http://www.w3.org/2000/svg">
<mask id="mask0_1180_12438" style="mask-type:alpha" maskUnits="userSpaceOnUse" x="0" y="0" width="24" height="24">
<rect width="24" height="24" fill="#D9D9D9"/>
</mask>
<g mask="url(#mask0_1180_12438)">
<path d="M4.9502 20.5C4.26686 20.5 3.67953 20.2583 3.1882 19.775C2.6962 19.2917 2.4502 18.7 2.4502 18C2.4502 17.6 2.53786 17.229 2.7132 16.887C2.88786 16.5457 3.13353 16.25 3.4502 16V12.3C3.4502 12.0833 3.52953 11.896 3.6882 11.738C3.8462 11.5793 4.04186 11.5 4.2752 11.5H5.7502V6.8C5.7502 6.58333 5.82953 6.39567 5.9882 6.237C6.1462 6.079 6.33353 6 6.5502 6H10.7752C11.1085 6 11.4085 6.08733 11.6752 6.262C11.9419 6.43733 12.1419 6.675 12.2752 6.975L16.2002 16.2C16.2835 16.4 16.3545 16.6083 16.4132 16.825C16.4712 17.0417 16.5002 17.2667 16.5002 17.5C16.5002 18.3333 16.2085 19.0417 15.6252 19.625C15.0419 20.2083 14.3335 20.5 13.5002 20.5C12.8502 20.5 12.2669 20.3167 11.7502 19.95C11.2335 19.5833 10.8752 19.1 10.6752 18.5H7.4002C7.28353 19.0833 6.9962 19.5627 6.5382 19.938C6.07953 20.3127 5.5502 20.5 4.9502 20.5ZM21.0502 19.5H18.3002C18.0835 19.5 17.8962 19.4207 17.7382 19.262C17.5795 19.104 17.5002 18.9167 17.5002 18.7V5C17.5002 4.85 17.5502 4.729 17.6502 4.637C17.7502 4.54567 17.8669 4.5 18.0002 4.5C18.1502 4.5 18.2712 4.54567 18.3632 4.637C18.4545 4.729 18.5002 4.85 18.5002 5V18.5H21.0502C21.1835 18.5 21.3002 18.55 21.4002 18.65C21.5002 18.75 21.5502 18.8667 21.5502 19C21.5502 19.15 21.5002 19.271 21.4002 19.363C21.3002 19.4543 21.1835 19.5 21.0502 19.5ZM4.9502 19.5C5.36686 19.5 5.7212 19.354 6.0132 19.062C6.30453 18.7707 6.4502 18.4167 6.4502 18C6.4502 17.5833 6.30453 17.2293 6.0132 16.938C5.7212 16.646 5.36686 16.5 4.9502 16.5C4.55019 16.5 4.2002 16.646 3.9002 16.938C3.6002 17.2293 3.4502 17.5833 3.4502 18C3.4502 18.4167 3.6002 18.7707 3.9002 19.062C4.2002 19.354 4.55019 19.5 4.9502 19.5ZM13.5002 19.5C14.0502 19.5 14.5212 19.3043 14.9132 18.913C15.3045 18.521 15.5002 18.05 15.5002 17.5C15.5002 16.95 15.3045 16.479 14.9132 16.087C14.5212 15.6957 14.0502 15.5 13.5002 15.5C12.9502 15.5 12.4795 15.6957 12.0882 16.087C11.6962 16.479 11.5002 16.95 11.5002 17.5C11.5002 18.05 11.6962 18.521 12.0882 18.913C12.4795 19.3043 12.9502 19.5 13.5002 19.5ZM7.4002 17.5H10.5002C10.4835 17.1167 10.5462 16.75 10.6882 16.4C10.8295 16.05 11.0419 15.75 11.3252 15.5H9.2502L6.3252 12.5H4.4502V15.575L4.7002 15.525C4.78353 15.5083 4.86686 15.5 4.9502 15.5C5.5502 15.5 6.07953 15.6873 6.5382 16.062C6.9962 16.4373 7.28353 16.9167 7.4002 17.5ZM9.6752 14.5H13.5252C13.6919 14.5 13.8585 14.5207 14.0252 14.562C14.1919 14.604 14.3502 14.6583 14.5002 14.725L11.3502 7.375C11.3002 7.25833 11.2252 7.16667 11.1252 7.1C11.0252 7.03333 10.9169 7 10.8002 7H6.7502V11.5L9.6752 14.5ZM9.2502 15.5L8.7882 15.025C8.47953 14.7083 8.1462 14.3623 7.7882 13.987C7.42953 13.6123 7.09586 13.2707 6.7872 12.962L6.3252 12.5L9.2502 15.5Z" fill="white"/>
</g>
</svg>
