<svg width="24" height="24" viewBox="0 0 24 24" fill="none" xmlns="http://www.w3.org/2000/svg">
<mask id="mask0_1180_12408" style="mask-type:alpha" maskUnits="userSpaceOnUse" x="0" y="0" width="24" height="24">
<rect width="24" height="24" fill="#D9D9D9"/>
</mask>
<g mask="url(#mask0_1180_12408)">
<path d="M6 18.9996H9.7V13.1246H14.3V18.9996H18V9.99961L12 5.44961L6 9.99961V18.9996ZM6 19.9996C5.73333 19.9996 5.5 19.8996 5.3 19.6996C5.1 19.4996 5 19.2663 5 18.9996V9.99961C5 9.84961 5.03333 9.70361 5.1 9.56161C5.16667 9.42028 5.26667 9.29961 5.4 9.19961L11.4 4.67461C11.4833 4.60794 11.575 4.55794 11.675 4.52461C11.775 4.49128 11.8833 4.47461 12 4.47461C12.1167 4.47461 12.225 4.49128 12.325 4.52461C12.425 4.55794 12.5167 4.60794 12.6 4.67461L18.6 9.19961C18.7333 9.29961 18.8333 9.42028 18.9 9.56161C18.9667 9.70361 19 9.84961 19 9.99961V18.9996C19 19.2663 18.9 19.4996 18.7 19.6996C18.5 19.8996 18.2667 19.9996 18 19.9996H13.3V14.1246H10.7V19.9996H6Z" fill="white"/>
</g>
</svg>
