<svg width="24" height="24" viewBox="0 0 24 24" fill="none" xmlns="http://www.w3.org/2000/svg">
<mask id="mask0_1180_12426" style="mask-type:alpha" maskUnits="userSpaceOnUse" x="0" y="0" width="24" height="24">
<rect width="24" height="24" fill="#D9D9D9"/>
</mask>
<g mask="url(#mask0_1180_12426)">
<path d="M9 11.5C8.85 11.5 8.729 11.4543 8.637 11.363C8.54567 11.271 8.5 11.15 8.5 11C8.5 10.85 8.54567 10.729 8.637 10.637C8.729 10.5457 8.85 10.5 9 10.5H15C15.15 10.5 15.271 10.5457 15.363 10.637C15.4543 10.729 15.5 10.85 15.5 11C15.5 11.15 15.4543 11.271 15.363 11.363C15.271 11.4543 15.15 11.5 15 11.5H9ZM9 7.5C8.85 7.5 8.729 7.454 8.637 7.362C8.54567 7.27067 8.5 7.15 8.5 7C8.5 6.85 8.54567 6.729 8.637 6.637C8.729 6.54567 8.85 6.5 9 6.5H15C15.15 6.5 15.271 6.54567 15.363 6.637C15.4543 6.729 15.5 6.85 15.5 7C15.5 7.15 15.4543 7.27067 15.363 7.362C15.271 7.454 15.15 7.5 15 7.5H9ZM6 14.5H13.5C13.9 14.5 14.271 14.5873 14.613 14.762C14.9543 14.9373 15.25 15.1833 15.5 15.5L18 18.75V4.625C18 4.44167 17.9417 4.29167 17.825 4.175C17.7083 4.05833 17.5583 4 17.375 4H6.625C6.44167 4 6.29167 4.05833 6.175 4.175C6.05833 4.29167 6 4.44167 6 4.625V14.5ZM6.625 20H17.675L14.7 16.125C14.55 15.925 14.375 15.7707 14.175 15.662C13.975 15.554 13.75 15.5 13.5 15.5H6V19.375C6 19.5583 6.05833 19.7083 6.175 19.825C6.29167 19.9417 6.44167 20 6.625 20ZM17.375 21H6.625C6.15833 21 5.771 20.846 5.463 20.538C5.15433 20.2293 5 19.8417 5 19.375V4.625C5 4.15833 5.15433 3.77067 5.463 3.462C5.771 3.154 6.15833 3 6.625 3H17.375C17.8417 3 18.2293 3.154 18.538 3.462C18.846 3.77067 19 4.15833 19 4.625V19.375C19 19.8417 18.846 20.2293 18.538 20.538C18.2293 20.846 17.8417 21 17.375 21Z" fill="white"/>
</g>
</svg>
