<svg width="24" height="24" viewBox="0 0 24 24" fill="none" xmlns="http://www.w3.org/2000/svg">
<mask id="mask0_1180_12444" style="mask-type:alpha" maskUnits="userSpaceOnUse" x="0" y="0" width="24" height="24">
<rect width="24" height="24" fill="#D9D9D9"/>
</mask>
<g mask="url(#mask0_1180_12444)">
<path d="M10.125 21L9.775 18.1C9.45833 18.0167 9.11267 17.871 8.738 17.663C8.36267 17.4543 8.05 17.2333 7.8 17L5.125 18.125L3.25 14.875L5.575 13.125C5.54167 12.9583 5.51267 12.779 5.488 12.587C5.46267 12.3957 5.45 12.2083 5.45 12.025C5.45 11.8583 5.46267 11.679 5.488 11.487C5.51267 11.2957 5.54167 11.0917 5.575 10.875L3.25 9.125L5.125 5.925L7.775 7.025C8.075 6.775 8.396 6.55 8.738 6.35C9.07933 6.15 9.41667 6 9.75 5.9L10.125 3H13.875L14.225 5.9C14.6083 6.05 14.946 6.20833 15.238 6.375C15.5293 6.54167 15.8333 6.75833 16.15 7.025L18.875 5.925L20.75 9.125L18.35 10.925C18.4167 11.125 18.45 11.3127 18.45 11.488V12C18.45 12.15 18.446 12.3127 18.438 12.488C18.4293 12.6627 18.4 12.875 18.35 13.125L20.7 14.875L18.825 18.125L16.15 16.975C15.8333 17.2417 15.521 17.4667 15.213 17.65C14.9043 17.8333 14.575 17.9833 14.225 18.1L13.875 21H10.125ZM11 20H12.95L13.325 17.3C13.825 17.1667 14.2793 16.9833 14.688 16.75C15.096 16.5167 15.5083 16.1917 15.925 15.775L18.4 16.85L19.4 15.15L17.225 13.5C17.3083 13.2167 17.3627 12.954 17.388 12.712C17.4127 12.4707 17.425 12.2333 17.425 12C17.425 11.75 17.4127 11.5123 17.388 11.287C17.3627 11.0623 17.3083 10.8083 17.225 10.525L19.45 8.85L18.45 7.15L15.9 8.225C15.6 7.89167 15.2043 7.579 14.713 7.287C14.221 6.99567 13.75 6.8 13.3 6.7L13 4H11L10.7 6.7C10.2 6.8 9.73733 6.97067 9.312 7.212C8.88733 7.454 8.46667 7.78333 8.05 8.2L5.55 7.15L4.55 8.85L6.725 10.475C6.64167 10.6917 6.58333 10.9333 6.55 11.2C6.51667 11.4667 6.5 11.7417 6.5 12.025C6.5 12.275 6.51667 12.525 6.55 12.775C6.58333 13.025 6.63333 13.2667 6.7 13.5L4.55 15.15L5.55 16.85L8.025 15.8C8.425 16.2 8.83333 16.5167 9.25 16.75C9.66667 16.9833 10.1417 17.1667 10.675 17.3L11 20ZM12 14.975C12.15 14.975 12.271 14.929 12.363 14.837C12.4543 14.7457 12.5 14.625 12.5 14.475C12.5 14.3417 12.4543 14.225 12.363 14.125C12.271 14.025 12.15 13.975 12 13.975C11.85 13.975 11.729 14.025 11.637 14.125C11.5457 14.225 11.5 14.3417 11.5 14.475C11.5 14.625 11.5457 14.7457 11.637 14.837C11.729 14.929 11.85 14.975 12 14.975ZM11.5 13H12.5V8.5H11.5V13Z" fill="white"/>
</g>
</svg>
