<svg width="128" height="46" viewBox="0 0 128 46" fill="none" xmlns="http://www.w3.org/2000/svg">
<path fill-rule="evenodd" clip-rule="evenodd" d="M4.38857 4.416V41.584H123.611V4.416H4.38857ZM2.92571 0C1.30989 0 0 1.31807 0 2.944V43.056C0 44.6819 1.30989 46 2.92571 46H125.074C126.69 46 128 44.6819 128 43.056V2.944C128 1.31807 126.69 0 125.074 0H2.92571Z" fill="white"/>
<path d="M23.3335 21.6015C23.4506 22.3473 23.4896 23.1815 23.4506 24.1039C23.4311 24.3395 23.3043 24.4572 23.0702 24.4572H14.0298C13.9127 24.4572 13.8737 24.5063 13.9127 24.6044C13.9713 24.9969 14.0785 25.3895 14.2346 25.782C14.7417 26.8811 15.7754 27.4307 17.3358 27.4307C18.5841 27.411 19.5691 26.9007 20.2908 25.8998C20.3688 25.782 20.4566 25.7231 20.5541 25.7231C20.6126 25.7231 20.6809 25.7624 20.7589 25.8409L22.8654 27.9311C22.9629 28.0293 23.0117 28.1176 23.0117 28.1961C23.0117 28.2353 22.9727 28.3139 22.8947 28.4316C22.251 29.2363 21.4221 29.8644 20.4078 30.3158C19.3936 30.7476 18.2818 30.9635 17.0725 30.9635C15.3951 30.9635 13.9713 30.5807 12.801 29.8153C11.6502 29.0498 10.8212 27.9802 10.3141 26.6063C9.90451 25.625 9.69971 24.3395 9.69971 22.7497C9.69971 21.6702 9.84599 20.7183 10.1386 19.894C10.5872 18.5005 11.3674 17.3916 12.4791 16.5673C13.6104 15.743 14.9465 15.3308 16.4874 15.3308C18.4378 15.3308 19.9982 15.9 21.1685 17.0383C22.3583 18.1767 23.08 19.6977 23.3335 21.6015ZM16.5166 18.9225C15.2878 18.9225 14.4784 19.5015 14.0883 20.6595C14.0103 20.9146 13.942 21.2286 13.8835 21.6015C13.8835 21.6997 13.9322 21.7487 14.0298 21.7487H19.0912C19.2083 21.7487 19.2473 21.6997 19.2083 21.6015C19.1108 21.0324 19.062 20.7576 19.062 20.7772C18.8865 20.1884 18.5744 19.737 18.1258 19.423C17.6967 19.0893 17.1603 18.9225 16.5166 18.9225Z" fill="white"/>
<path d="M33.8339 15.3602C35.3943 15.3602 36.6523 15.8411 37.6081 16.8028C38.5638 17.7645 39.0417 19.0697 39.0417 20.7183V30.3747C39.0417 30.4728 39.0026 30.5611 38.9246 30.6396C38.8661 30.6985 38.7881 30.7279 38.6906 30.7279H35.2675C35.17 30.7279 35.0822 30.6985 35.0042 30.6396C34.9457 30.5611 34.9164 30.4728 34.9164 30.3747V21.5721C34.9164 20.787 34.6921 20.1492 34.2435 19.6585C33.8144 19.1678 33.239 18.9225 32.5173 18.9225C31.7956 18.9225 31.2105 19.1678 30.7619 19.6585C30.3328 20.1492 30.1182 20.787 30.1182 21.5721V30.3747C30.1182 30.4728 30.0792 30.5611 30.0012 30.6396C29.9427 30.6985 29.8647 30.7279 29.7671 30.7279H26.344C26.2465 30.7279 26.1588 30.6985 26.0807 30.6396C26.0222 30.5611 25.993 30.4728 25.993 30.3747V15.949C25.993 15.8509 26.0222 15.7724 26.0807 15.7135C26.1588 15.635 26.2465 15.5958 26.344 15.5958H29.7671C29.8647 15.5958 29.9427 15.635 30.0012 15.7135C30.0792 15.7724 30.1182 15.8509 30.1182 15.949V16.9795C30.1182 17.0383 30.1377 17.0776 30.1767 17.0972C30.2157 17.1168 30.245 17.107 30.2645 17.0678C31.0642 15.9294 32.254 15.3602 33.8339 15.3602Z" fill="white"/>
<path d="M47.9907 30.934C46.6839 30.934 45.5428 30.7476 44.5676 30.3747C43.5924 30.0017 42.8317 29.4816 42.2855 28.8143C41.7589 28.147 41.4956 27.3914 41.4956 26.5475V26.253C41.4956 26.1549 41.5249 26.0764 41.5834 26.0175C41.6614 25.939 41.7492 25.8998 41.8467 25.8998H45.0942C45.1917 25.8998 45.2698 25.939 45.3283 26.0175C45.4063 26.0764 45.4453 26.1549 45.4453 26.253V26.2825C45.4453 26.7143 45.6794 27.0872 46.1475 27.4012C46.6351 27.6956 47.2397 27.8428 47.9614 27.8428C48.6246 27.8428 49.161 27.7152 49.5706 27.4601C49.9802 27.1853 50.185 26.8517 50.185 26.4591C50.185 26.1059 50.0094 25.8409 49.6583 25.6642C49.3073 25.4876 48.7319 25.3012 47.9322 25.1049C47.0154 24.8694 46.2938 24.6437 45.7671 24.4278C44.5188 23.996 43.5241 23.4661 42.7829 22.838C42.0417 22.21 41.6711 21.3071 41.6711 20.1295C41.6711 18.6772 42.227 17.529 43.3388 16.685C44.4701 15.8215 45.9622 15.3897 47.8151 15.3897C49.0634 15.3897 50.1557 15.5958 51.0919 16.0079C52.0282 16.4005 52.7498 16.9598 53.257 17.686C53.7836 18.4122 54.0469 19.2365 54.0469 20.159C54.0469 20.2571 54.0079 20.3454 53.9299 20.4239C53.8714 20.4828 53.7933 20.5122 53.6958 20.5122H50.5653C50.4678 20.5122 50.38 20.4828 50.302 20.4239C50.2435 20.3454 50.2142 20.2571 50.2142 20.159C50.2142 19.7272 49.9899 19.3641 49.5413 19.0697C49.1122 18.7753 48.5368 18.6281 47.8151 18.6281C47.1715 18.6281 46.6449 18.7459 46.2353 18.9814C45.8256 19.2169 45.6208 19.5407 45.6208 19.9529C45.6208 20.3454 45.8159 20.6398 46.206 20.8361C46.6156 21.0324 47.2885 21.2384 48.2247 21.4543C48.4393 21.5132 48.6831 21.5819 48.9562 21.6604C49.2292 21.7193 49.5218 21.7978 49.8339 21.8959C51.2187 22.3081 52.311 22.838 53.1107 23.4857C53.9104 24.1334 54.3102 25.0755 54.3102 26.3119C54.3102 27.7643 53.7348 28.9026 52.584 29.727C51.4528 30.5317 49.9216 30.934 47.9907 30.934Z" fill="white"/>
<path d="M63.2908 30.9635C61.7304 30.9635 60.3748 30.5709 59.224 29.7859C58.0928 29.0008 57.2833 27.9213 56.7957 26.5475C56.4641 25.5661 56.2983 24.4081 56.2983 23.0735C56.2983 21.7585 56.4641 20.6202 56.7957 19.6585C57.2638 18.3239 58.0733 17.2739 59.224 16.5084C60.3748 15.743 61.7304 15.3602 63.2908 15.3602C64.8512 15.3602 66.2165 15.7528 67.3868 16.5379C68.5766 17.3229 69.3665 18.3141 69.7566 19.5113C69.9127 19.9823 69.9907 20.3356 69.9907 20.5711V20.63C69.9907 20.8066 69.8932 20.9146 69.6981 20.9539L66.3335 21.4543H66.275C66.0995 21.4543 65.9824 21.3562 65.9239 21.1599L65.8362 20.6889C65.6996 20.1786 65.3973 19.7566 64.9292 19.423C64.4611 19.0893 63.9052 18.9225 63.2615 18.9225C62.6374 18.9225 62.1108 19.0795 61.6816 19.3935C61.2525 19.7076 60.9502 20.1393 60.7747 20.6889C60.5601 21.2777 60.4528 22.0824 60.4528 23.103C60.4528 24.1236 60.5504 24.9282 60.7454 25.517C60.921 26.1058 61.2233 26.5671 61.6524 26.9007C62.101 27.2344 62.6374 27.4012 63.2615 27.4012C63.8662 27.4012 64.3928 27.2442 64.8414 26.9302C65.3095 26.5965 65.6314 26.1451 65.8069 25.5759C65.8264 25.5367 65.8362 25.4778 65.8362 25.3993C65.8557 25.3797 65.8654 25.3502 65.8654 25.311C65.8849 25.0754 66.0215 24.9773 66.275 25.0166L69.6396 25.5465C69.8346 25.5857 69.9322 25.6937 69.9322 25.8703C69.9322 26.0273 69.8736 26.3217 69.7566 26.7535C69.347 28.0685 68.5473 29.0989 67.3575 29.8447C66.1872 30.5905 64.8317 30.9635 63.2908 30.9635Z" fill="white"/>
<path d="M78.8629 30.9635C77.2245 30.9635 75.8202 30.5317 74.6499 29.6681C73.4796 28.8045 72.6799 27.6269 72.2508 26.1353C71.9777 25.2128 71.8412 24.2119 71.8412 23.1324C71.8412 21.9744 71.9777 20.9342 72.2508 20.0118C72.6994 18.5594 73.5089 17.4211 74.6791 16.5967C75.8494 15.7724 77.2538 15.3602 78.8922 15.3602C80.4916 15.3602 81.8569 15.7724 82.9882 16.5967C84.1194 17.4014 84.9191 18.53 85.3873 19.9823C85.6993 20.9637 85.8554 21.9941 85.8554 23.0735C85.8554 24.1334 85.7188 25.1245 85.4458 26.047C85.0167 27.5779 84.217 28.7849 83.0467 29.6681C81.8959 30.5317 80.5013 30.9635 78.8629 30.9635ZM78.8629 27.4012C79.5066 27.4012 80.0527 27.2049 80.5013 26.8124C80.9499 26.4199 81.2717 25.8801 81.4668 25.1932C81.6228 24.5652 81.7009 23.8782 81.7009 23.1324C81.7009 22.3081 81.6228 21.6113 81.4668 21.0422C81.2522 20.3749 80.9207 19.8548 80.4721 19.4819C80.0234 19.1089 79.4773 18.9225 78.8336 18.9225C78.1705 18.9225 77.6146 19.1089 77.166 19.4819C76.7369 19.8548 76.4248 20.3749 76.2298 21.0422C76.0737 21.5132 75.9957 22.21 75.9957 23.1324C75.9957 24.0156 76.064 24.7025 76.2005 25.1932C76.3956 25.8801 76.7174 26.4199 77.166 26.8124C77.6341 27.2049 78.1997 27.4012 78.8629 27.4012Z" fill="white"/>
<path d="M101.936 19.6585C102.287 20.6595 102.463 21.8371 102.463 23.1913C102.463 24.5455 102.278 25.7722 101.907 26.8713C101.458 28.1274 100.746 29.1284 99.7713 29.8742C98.8155 30.6004 97.6257 30.9635 96.2019 30.9635C94.7975 30.9635 93.7053 30.4728 92.9251 29.4915C92.8861 29.4326 92.8471 29.4129 92.8081 29.4326C92.769 29.4522 92.7495 29.4915 92.7495 29.5503V35.8505C92.7495 35.9486 92.7105 36.0271 92.6325 36.086C92.574 36.1645 92.496 36.2038 92.3985 36.2038H88.9754C88.8778 36.2038 88.7901 36.1645 88.7121 36.086C88.6535 36.0271 88.6243 35.9486 88.6243 35.8505V15.949C88.6243 15.8509 88.6535 15.7724 88.7121 15.7135C88.7901 15.635 88.8778 15.5958 88.9754 15.5958H92.3985C92.496 15.5958 92.574 15.635 92.6325 15.7135C92.7105 15.7724 92.7495 15.8509 92.7495 15.949V16.9206C92.7495 16.9795 92.769 17.0187 92.8081 17.0383C92.8471 17.0383 92.8861 17.0187 92.9251 16.9795C93.7443 15.9 94.8756 15.3602 96.3189 15.3602C97.6647 15.3602 98.8253 15.743 99.8005 16.5084C100.795 17.2542 101.507 18.3042 101.936 19.6585ZM97.4599 26.253C97.9476 25.4876 98.1914 24.4474 98.1914 23.1324C98.1914 21.8959 97.9866 20.9146 97.577 20.1884C97.1284 19.3445 96.4067 18.9225 95.4119 18.9225C94.5147 18.9225 93.8418 19.3445 93.3932 20.1884C92.9836 20.895 92.7788 21.8861 92.7788 23.1618C92.7788 24.4768 92.9933 25.4974 93.4225 26.2236C93.8711 27.0087 94.5342 27.4012 95.4119 27.4012C96.2896 27.4012 96.9723 27.0185 97.4599 26.253Z" fill="white"/>
<path d="M118.362 21.6015C118.479 22.3473 118.518 23.1815 118.479 24.1039C118.46 24.3395 118.333 24.4572 118.099 24.4572H109.058C108.941 24.4572 108.902 24.5063 108.941 24.6044C109 24.9969 109.107 25.3895 109.263 25.782C109.77 26.8811 110.804 27.4307 112.364 27.4307C113.613 27.411 114.598 26.9007 115.319 25.8998C115.397 25.782 115.485 25.7231 115.583 25.7231C115.641 25.7231 115.709 25.7624 115.787 25.8409L117.894 27.9311C117.992 28.0293 118.04 28.1176 118.04 28.1961C118.04 28.2353 118.001 28.3139 117.923 28.4316C117.28 29.2363 116.451 29.8644 115.436 30.3158C114.422 30.7476 113.31 30.9635 112.101 30.9635C110.424 30.9635 109 30.5807 107.83 29.8153C106.679 29.0498 105.85 27.9802 105.343 26.6063C104.933 25.625 104.728 24.3395 104.728 22.7497C104.728 21.6702 104.875 20.7183 105.167 19.894C105.616 18.5005 106.396 17.3916 107.508 16.5673C108.639 15.743 109.975 15.3308 111.516 15.3308C113.466 15.3308 115.027 15.9 116.197 17.0383C117.387 18.1767 118.109 19.6977 118.362 21.6015ZM111.545 18.9225C110.316 18.9225 109.507 19.5015 109.117 20.6595C109.039 20.9146 108.971 21.2286 108.912 21.6015C108.912 21.6997 108.961 21.7487 109.058 21.7487H114.12C114.237 21.7487 114.276 21.6997 114.237 21.6015C114.139 21.0324 114.091 20.7576 114.091 20.7772C113.915 20.1884 113.603 19.737 113.154 19.423C112.725 19.0893 112.189 18.9225 111.545 18.9225Z" fill="white"/>
</svg>
