<svg width="48" height="48" viewBox="0 0 48 48" fill="none" xmlns="http://www.w3.org/2000/svg">
<mask id="mask0_1443_1381" style="mask-type:alpha" maskUnits="userSpaceOnUse" x="0" y="0" width="48" height="48">
<rect width="48" height="48" fill="#D9D9D9"/>
</mask>
<g mask="url(#mask0_1443_1381)">
<path d="M24 30.75C24.3 30.75 24.55 30.6587 24.75 30.476C24.95 30.292 25.05 30.05 25.05 29.75V20.95L28.55 24.5C28.7167 24.6667 28.942 24.75 29.226 24.75C29.5087 24.75 29.7333 24.6667 29.9 24.5C30.1 24.3 30.2 24.058 30.2 23.774C30.2 23.4913 30.1 23.2667 29.9 23.1L25.2 18.35C25 18.1833 24.808 18.0667 24.624 18C24.4413 17.9333 24.2333 17.9 24 17.9C23.8 17.9 23.6087 17.9333 23.426 18C23.242 18.0667 23.05 18.1833 22.85 18.35L18.1 23.1C17.9 23.2667 17.8 23.4913 17.8 23.774C17.8 24.058 17.9 24.3 18.1 24.5C18.2667 24.6667 18.492 24.75 18.776 24.75C19.0587 24.75 19.2833 24.6667 19.45 24.5L23 20.95V29.75C23 30.05 23.1 30.292 23.3 30.476C23.5 30.6587 23.7333 30.75 24 30.75ZM24 42C21.5 42 19.1587 41.5253 16.976 40.576C14.792 39.6253 12.892 38.3413 11.276 36.724C9.65867 35.108 8.37467 33.208 7.424 31.024C6.47467 28.8413 6 26.5 6 24C6 21.5 6.47467 19.158 7.424 16.974C8.37467 14.7913 9.65867 12.8913 11.276 11.274C12.892 9.658 14.792 8.37467 16.976 7.424C19.1587 6.47467 21.5 6 24 6C26.5 6 28.842 6.47467 31.026 7.424C33.2087 8.37467 35.1087 9.658 36.726 11.274C38.342 12.8913 39.6253 14.7913 40.576 16.974C41.5253 19.158 42 21.5 42 24C42 26.5 41.5253 28.8413 40.576 31.024C39.6253 33.208 38.342 35.108 36.726 36.724C35.1087 38.3413 33.2087 39.6253 31.026 40.576C28.842 41.5253 26.5 42 24 42ZM24 40C28.4333 40 32.2087 38.442 35.326 35.326C38.442 32.2087 40 28.4333 40 24C40 19.5667 38.442 15.7913 35.326 12.674C32.2087 9.558 28.4333 8 24 8C19.5667 8 15.792 9.558 12.676 12.674C9.55867 15.7913 8 19.5667 8 24C8 28.4333 9.55867 32.2087 12.676 35.326C15.792 38.442 19.5667 40 24 40Z" fill="#E86F55"/>
</g>
</svg>
