<svg width="48" height="48" viewBox="0 0 48 48" fill="none" xmlns="http://www.w3.org/2000/svg">
<mask id="mask0_1443_174" style="mask-type:alpha" maskUnits="userSpaceOnUse" x="0" y="0" width="48" height="48">
<rect width="48" height="48" fill="#D9D9D9"/>
</mask>
<g mask="url(#mask0_1443_174)">
<path d="M24 30.1C24.2 30.1 24.4 30.0667 24.6 30C24.8 29.9333 24.9833 29.8167 25.15 29.65L29.9 24.9C30.1 24.7333 30.2 24.508 30.2 24.224C30.2 23.9413 30.1 23.7 29.9 23.5C29.7333 23.3333 29.5087 23.25 29.226 23.25C28.942 23.25 28.7167 23.3333 28.55 23.5L25.05 27.05V18.25C25.05 17.95 24.95 17.7 24.75 17.5C24.55 17.3 24.3 17.2 24 17.2C23.7 17.2 23.45 17.3 23.25 17.5C23.05 17.7 22.95 17.95 22.95 18.25V27.05L19.45 23.5C19.2833 23.3333 19.0587 23.25 18.776 23.25C18.492 23.25 18.2667 23.3333 18.1 23.5C17.9 23.7 17.8 23.9413 17.8 24.224C17.8 24.508 17.9 24.7333 18.1 24.9L22.85 29.65C23.05 29.8167 23.242 29.9333 23.426 30C23.6087 30.0667 23.8 30.1 24 30.1ZM24 42C21.5 42 19.1587 41.5253 16.976 40.576C14.792 39.6253 12.892 38.3413 11.276 36.724C9.65867 35.108 8.37467 33.208 7.424 31.024C6.47467 28.8413 6 26.5 6 24C6 21.5 6.47467 19.158 7.424 16.974C8.37467 14.7913 9.65867 12.8913 11.276 11.274C12.892 9.658 14.792 8.37467 16.976 7.424C19.1587 6.47467 21.5 6 24 6C26.5 6 28.842 6.47467 31.026 7.424C33.2087 8.37467 35.1087 9.658 36.726 11.274C38.342 12.8913 39.6253 14.7913 40.576 16.974C41.5253 19.158 42 21.5 42 24C42 26.5 41.5253 28.8413 40.576 31.024C39.6253 33.208 38.342 35.108 36.726 36.724C35.1087 38.3413 33.2087 39.6253 31.026 40.576C28.842 41.5253 26.5 42 24 42ZM24 40C28.4333 40 32.2087 38.442 35.326 35.326C38.442 32.2087 40 28.4333 40 24C40 19.5667 38.442 15.7913 35.326 12.674C32.2087 9.558 28.4333 8 24 8C19.5667 8 15.792 9.558 12.676 12.674C9.55867 15.7913 8 19.5667 8 24C8 28.4333 9.55867 32.2087 12.676 35.326C15.792 38.442 19.5667 40 24 40Z" fill="#158D47"/>
</g>
</svg>
