<svg width="48" height="48" viewBox="0 0 48 48" fill="none" xmlns="http://www.w3.org/2000/svg">
<mask id="mask0_1443_1120" style="mask-type:alpha" maskUnits="userSpaceOnUse" x="0" y="0" width="48" height="48">
<rect width="48" height="48" fill="#D9D9D9"/>
</mask>
<g mask="url(#mask0_1443_1120)">
<path d="M18 14V11.25C18 10.3167 18.3087 9.542 18.926 8.926C19.542 8.30867 20.3167 8 21.25 8H26.75C27.6833 8 28.4587 8.30867 29.076 8.926C29.692 9.542 30 10.3167 30 11.25V14H38.75C39.6833 14 40.4587 14.3087 41.076 14.926C41.692 15.542 42 16.3167 42 17.25V36.75C42 37.6833 41.692 38.4587 41.076 39.076C40.4587 39.692 39.6833 40 38.75 40H9.25C8.31667 40 7.542 39.692 6.926 39.076C6.30867 38.4587 6 37.6833 6 36.75V17.25C6 16.3167 6.30867 15.542 6.926 14.926C7.542 14.3087 8.31667 14 9.25 14H18ZM20 14H28V11.25C28 10.9167 27.8747 10.6253 27.624 10.376C27.3747 10.1253 27.0833 10 26.75 10H21.25C20.9167 10 20.6253 10.1253 20.376 10.376C20.1253 10.6253 20 10.9167 20 11.25V14ZM40 29H28V30.4C28 30.8667 27.85 31.25 27.55 31.55C27.25 31.85 26.8667 32 26.4 32H21.6C21.1333 32 20.75 31.85 20.45 31.55C20.15 31.25 20 30.8667 20 30.4V29H8V36.75C8 37.0833 8.12533 37.3747 8.376 37.624C8.62533 37.8747 8.91667 38 9.25 38H38.75C39.0833 38 39.3747 37.8747 39.624 37.624C39.8747 37.3747 40 37.0833 40 36.75V29ZM22 30H26V26H22V30ZM8 27H20V25.6C20 25.1333 20.15 24.75 20.45 24.45C20.75 24.15 21.1333 24 21.6 24H26.4C26.8667 24 27.25 24.15 27.55 24.45C27.85 24.75 28 25.1333 28 25.6V27H40V17.25C40 16.9167 39.8747 16.6253 39.624 16.376C39.3747 16.1253 39.0833 16 38.75 16H9.25C8.91667 16 8.62533 16.1253 8.376 16.376C8.12533 16.6253 8 16.9167 8 17.25V27Z" fill="#9747FF"/>
</g>
</svg>
