<svg width="40" height="40" viewBox="0 0 40 40" fill="none" xmlns="http://www.w3.org/2000/svg">
<mask id="mask0_1498_22657" style="mask-type:alpha" maskUnits="userSpaceOnUse" x="0" y="0" width="40" height="40">
<rect width="40" height="40" fill="#D9D9D9"/>
</mask>
<g mask="url(#mask0_1498_22657)">
<path d="M13.1363 26.8604C13.3478 27.0719 13.5935 27.1777 13.8734 27.1777C14.1533 27.1777 14.399 27.0719 14.6106 26.8604L19.9974 21.4736L25.4258 26.9021C25.6153 27.0915 25.854 27.1793 26.1421 27.1654C26.4302 27.1515 26.669 27.0498 26.8584 26.8604C27.07 26.6489 27.1757 26.4031 27.1757 26.1232C27.1757 25.8433 27.07 25.5976 26.8584 25.3861L21.4717 19.9993L26.9001 14.5708C27.0896 14.3814 27.1773 14.1426 27.1634 13.8546C27.1496 13.5664 27.0479 13.3277 26.8584 13.1382C26.6469 12.9267 26.4012 12.8209 26.1213 12.8209C25.8414 12.8209 25.5957 12.9267 25.3841 13.1382L19.9974 18.525L14.5689 13.0966C14.3795 12.9071 14.1407 12.8193 13.8526 12.8332C13.5645 12.8471 13.3257 12.9488 13.1363 13.1382C12.9247 13.3498 12.819 13.5955 12.819 13.8754C12.819 14.1553 12.9247 14.401 13.1363 14.6125L18.523 19.9993L13.0946 25.4278C12.9052 25.6172 12.8174 25.856 12.8313 26.1441C12.8452 26.4322 12.9468 26.6709 13.1363 26.8604ZM19.9974 35.8326C17.7759 35.8326 15.702 35.4248 13.7757 34.6093C11.8494 33.7938 10.1737 32.6734 8.74848 31.2482C7.32326 29.823 6.20288 28.1473 5.38735 26.221C4.57183 24.2947 4.16406 22.2208 4.16406 19.9993C4.16406 17.7892 4.57183 15.721 5.38735 13.7947C6.20288 11.8684 7.32326 10.1927 8.74848 8.76752C10.1737 7.34229 11.8494 6.21907 13.7757 5.39785C15.702 4.57663 17.7759 4.16602 19.9974 4.16602C22.2075 4.16602 24.2757 4.57663 26.2019 5.39785C28.1282 6.21907 29.804 7.34229 31.2291 8.76752C32.6544 10.1927 33.7776 11.8684 34.5988 13.7947C35.42 15.721 35.8306 17.7892 35.8306 19.9993C35.8306 22.2208 35.42 24.2947 34.5988 26.221C33.7776 28.1473 32.6544 29.823 31.2291 31.2482C29.804 32.6734 28.1282 33.7938 26.2019 34.6093C24.2757 35.4248 22.2075 35.8326 19.9974 35.8326ZM19.9974 33.7386C23.7858 33.7386 27.0228 32.3959 29.7084 29.7103C32.3939 27.0248 33.7367 23.7878 33.7367 19.9993C33.7367 16.2108 32.3939 12.9738 29.7084 10.2883C27.0228 7.60275 23.7858 6.25997 19.9974 6.25997C16.2089 6.25997 12.9719 7.60275 10.2864 10.2883C7.6008 12.9738 6.25802 16.2108 6.25802 19.9993C6.25802 23.7878 7.6008 27.0248 10.2864 29.7103C12.9719 32.3959 16.2089 33.7386 19.9974 33.7386Z" fill="#929292"/>
</g>
</svg>
