<svg width="48" height="48" viewBox="0 0 48 48" fill="none" xmlns="http://www.w3.org/2000/svg">
<mask id="mask0_1401_1552" style="mask-type:alpha" maskUnits="userSpaceOnUse" x="0" y="0" width="48" height="48">
<rect width="48" height="48" fill="#D9D9D9"/>
</mask>
<g mask="url(#mask0_1401_1552)">
<path d="M18.6508 20.4504C18.0174 20.4504 17.5508 20.1751 17.2508 19.6244C16.9508 19.0751 16.9508 18.5337 17.2508 18.0004L22.6008 9.20039C22.9008 8.66706 23.3674 8.40039 24.0008 8.40039C24.6341 8.40039 25.1008 8.66706 25.4008 9.20039L30.7508 18.0004C31.0508 18.5337 31.0508 19.0751 30.7508 19.6244C30.4508 20.1751 29.9841 20.4504 29.3508 20.4504H18.6508ZM35.0008 42.4504C32.9008 42.4504 31.1341 41.7337 29.7008 40.3004C28.2675 38.8671 27.5508 37.1004 27.5508 35.0004C27.5508 32.9004 28.2675 31.1337 29.7008 29.7004C31.1341 28.2671 32.9008 27.5504 35.0008 27.5504C37.1008 27.5504 38.8674 28.2671 40.3008 29.7004C41.7341 31.1337 42.4508 32.9004 42.4508 35.0004C42.4508 37.1004 41.7341 38.8671 40.3008 40.3004C38.8674 41.7337 37.1008 42.4504 35.0008 42.4504ZM9.15078 41.4504C8.68411 41.4504 8.30078 41.3004 8.00078 41.0004C7.70078 40.7004 7.55078 40.3171 7.55078 39.8504V30.1504C7.55078 29.6837 7.70078 29.3004 8.00078 29.0004C8.30078 28.7004 8.68411 28.5504 9.15078 28.5504H18.8508C19.3174 28.5504 19.7008 28.7004 20.0008 29.0004C20.3008 29.3004 20.4508 29.6837 20.4508 30.1504V39.8504C20.4508 40.3171 20.3008 40.7004 20.0008 41.0004C19.7008 41.3004 19.3174 41.4504 18.8508 41.4504H9.15078ZM35.0008 40.4504C36.5341 40.4504 37.8261 39.9257 38.8768 38.8764C39.9261 37.8257 40.4508 36.5337 40.4508 35.0004C40.4508 33.4671 39.9261 32.1751 38.8768 31.1244C37.8261 30.0751 36.5341 29.5504 35.0008 29.5504C33.4674 29.5504 32.1754 30.0751 31.1248 31.1244C30.0754 32.1751 29.5508 33.4671 29.5508 35.0004C29.5508 36.5337 30.0754 37.8257 31.1248 38.8764C32.1754 39.9257 33.4674 40.4504 35.0008 40.4504ZM9.55078 39.4504H18.4508V30.5504H9.55078V39.4504ZM19.2508 18.4504H28.7508L24.0008 10.8504L19.2508 18.4504Z" fill="#3A3A3A"/>
</g>
</svg>
