<svg width="22" height="16" viewBox="0 0 22 16" fill="none" xmlns="http://www.w3.org/2000/svg">
<path d="M5.5 15.9996C3.98333 15.9996 2.6875 15.4746 1.6125 14.4246C0.5375 13.3746 0 12.0913 0 10.5746C0 9.27461 0.391667 8.11628 1.175 7.09961C1.95833 6.08294 2.98333 5.43294 4.25 5.14961C4.53333 3.94961 5.24167 2.80794 6.375 1.72461C7.50833 0.641276 8.71667 0.0996094 10 0.0996094C10.55 0.0996094 11.0208 0.295443 11.4125 0.687109C11.8042 1.07878 12 1.54961 12 2.09961V8.14961L12.9 7.27461C13.0833 7.09128 13.3125 6.99961 13.5875 6.99961C13.8625 6.99961 14.1 7.09961 14.3 7.29961C14.4833 7.48294 14.575 7.71628 14.575 7.99961C14.575 8.28294 14.4833 8.51628 14.3 8.69961L11.7 11.2996C11.6 11.3996 11.4917 11.4704 11.375 11.5121C11.2583 11.5538 11.1333 11.5746 11 11.5746C10.8667 11.5746 10.7417 11.5538 10.625 11.5121C10.5083 11.4704 10.4 11.3996 10.3 11.2996L7.7 8.69961C7.51667 8.51628 7.42083 8.28711 7.4125 8.01211C7.40417 7.73711 7.5 7.49961 7.7 7.29961C7.88333 7.11628 8.1125 7.02044 8.3875 7.01211C8.6625 7.00378 8.9 7.09128 9.1 7.27461L10 8.14961V2.09961C8.73333 2.33294 7.75 2.94544 7.05 3.93711C6.35 4.92878 6 5.94961 6 6.99961H5.5C4.53333 6.99961 3.70833 7.34128 3.025 8.02461C2.34167 8.70794 2 9.53294 2 10.4996C2 11.4663 2.34167 12.2913 3.025 12.9746C3.70833 13.6579 4.53333 13.9996 5.5 13.9996H17.5C18.2 13.9996 18.7917 13.7579 19.275 13.2746C19.7583 12.7913 20 12.1996 20 11.4996C20 10.7996 19.7583 10.2079 19.275 9.72461C18.7917 9.24128 18.2 8.99961 17.5 8.99961H16V6.99961C16 6.19961 15.8167 5.45378 15.45 4.76211C15.0833 4.07044 14.6 3.48294 14 2.99961V0.674609C15.2333 1.25794 16.2083 2.12044 16.925 3.26211C17.6417 4.40378 18 5.64961 18 6.99961C19.15 7.13294 20.1042 7.62878 20.8625 8.48711C21.6208 9.34544 22 10.3496 22 11.4996C22 12.7496 21.5625 13.8121 20.6875 14.6871C19.8125 15.5621 18.75 15.9996 17.5 15.9996H5.5Z" fill="white"/>
</svg>
