<svg width="48" height="48" viewBox="0 0 48 48" fill="none" xmlns="http://www.w3.org/2000/svg">
<mask id="mask0_1401_3082" style="mask-type:alpha" maskUnits="userSpaceOnUse" x="0" y="0" width="48" height="48">
<rect width="48" height="48" fill="#D9D9D9"/>
</mask>
<g mask="url(#mask0_1401_3082)">
<path d="M14.3031 40C13.96 40 13.6699 39.8803 13.4327 39.641C13.1955 39.4017 13.0769 39.1111 13.0769 38.7693V35.2077C12.4256 34.9256 11.75 34.325 11.05 33.4058C10.35 32.4865 10 31.4282 10 30.2307V12C10 9.925 11.1228 8.40625 13.3684 7.44375C15.6141 6.48125 19.1575 6 23.9988 6C29.015 6 32.6026 6.4625 34.7616 7.3875C36.9205 8.3125 38 9.85 38 12V30.2307C38 31.4282 37.65 32.4865 36.95 33.4058C36.25 34.325 35.5744 34.9256 34.9231 35.2077V38.7693C34.9231 39.1111 34.803 39.4017 34.5628 39.641C34.3226 39.8803 34.0309 40 33.6878 40C33.3447 40 33.0545 39.8803 32.8173 39.641C32.5801 39.4017 32.4616 39.1111 32.4616 38.7693V36H15.5385V38.7693C15.5385 39.1111 15.4183 39.4017 15.1781 39.641C14.9379 39.8803 14.6463 40 14.3031 40ZM12 22H36V13.077H12V22ZM17.009 31.2307C17.6312 31.2307 18.1571 31.013 18.5865 30.5775C19.016 30.142 19.2308 29.6131 19.2308 28.9909C19.2308 28.3688 19.013 27.843 18.5775 27.4135C18.142 26.984 17.6131 26.7693 16.991 26.7693C16.3688 26.7693 15.843 26.987 15.4135 27.4225C14.984 27.858 14.7693 28.3869 14.7693 29.0091C14.7693 29.6312 14.987 30.1571 15.4225 30.5866C15.858 31.016 16.3869 31.2307 17.009 31.2307ZM31.0091 31.2307C31.6312 31.2307 32.1571 31.013 32.5866 30.5775C33.016 30.142 33.2307 29.6131 33.2307 28.9909C33.2307 28.3688 33.013 27.843 32.5775 27.4135C32.142 26.984 31.6131 26.7693 30.9909 26.7693C30.3688 26.7693 29.843 26.987 29.4135 27.4225C28.984 27.858 28.7693 28.3869 28.7693 29.0091C28.7693 29.6312 28.987 30.1571 29.4225 30.5866C29.858 31.016 30.3869 31.2307 31.0091 31.2307ZM12.2077 11.0769H35.8384C35.4923 10.0487 34.4237 9.27883 32.6327 8.7673C30.8417 8.25577 27.9718 8 24.0231 8C20.0974 8 17.2391 8.25962 15.4481 8.77885C13.6571 9.29808 12.5769 10.0641 12.2077 11.0769ZM16 34H32C33.1 34 34.0417 33.6083 34.825 32.825C35.6083 32.0417 36 31.1 36 30V24H12V30C12 31.1 12.3917 32.0417 13.175 32.825C13.9583 33.6083 14.9 34 16 34Z" fill="#4B94EA"/>
</g>
</svg>
