<svg width="48" height="48" viewBox="0 0 48 48" fill="none" xmlns="http://www.w3.org/2000/svg">
<mask id="mask0_1401_1175" style="mask-type:alpha" maskUnits="userSpaceOnUse" x="0" y="0" width="48" height="48">
<rect width="48" height="48" fill="#D9D9D9"/>
</mask>
<g mask="url(#mask0_1401_1175)">
<path d="M23.4009 28.0002L11.5509 26.6002C10.8509 26.5335 10.4009 26.1669 10.2009 25.5002C10.0009 24.8335 10.1509 24.2669 10.6509 23.8002L30.2509 6.2502C30.3176 6.1502 30.4096 6.07486 30.5269 6.0242C30.6429 5.97486 30.8176 5.9502 31.0509 5.9502C31.4176 5.9502 31.7009 6.1082 31.9009 6.4242C32.1009 6.74153 32.1009 7.06686 31.9009 7.4002L24.4509 20.0502L36.4509 21.4002C37.1509 21.5002 37.6009 21.8749 37.8009 22.5242C38.0009 23.1749 37.8509 23.7335 37.3509 24.2002L17.7509 41.8002C17.6843 41.9002 17.5929 41.9669 17.4769 42.0002C17.3596 42.0335 17.1843 42.0502 16.9509 42.0502C16.5843 42.0502 16.3089 41.8922 16.1249 41.5762C15.9423 41.2589 15.9509 40.9502 16.1509 40.6502L23.4009 28.0002ZM21.0009 36.0502L35.4009 23.3002L21.2509 21.7002L27.0509 11.9002L12.6009 24.7002L26.7009 26.3502L21.0009 36.0502Z" fill="#4079D8"/>
</g>
</svg>
