<svg width="48" height="48" viewBox="0 0 48 48" fill="none" xmlns="http://www.w3.org/2000/svg">
<mask id="mask0_1443_568" style="mask-type:alpha" maskUnits="userSpaceOnUse" x="0" y="0" width="48" height="48">
<rect width="48" height="48" fill="#D9D9D9"/>
</mask>
<g mask="url(#mask0_1443_568)">
<path d="M9.25 41.9998C8.35 41.9998 7.58333 41.6831 6.95 41.0498C6.31667 40.4165 6 39.6498 6 38.7498V23.4498C6 22.8165 6.17533 22.2245 6.526 21.6738C6.87533 21.1245 7.35 20.7331 7.95 20.4998L13.85 17.9498C14.35 17.7498 14.8333 17.7998 15.3 18.0998C15.7667 18.3998 16 18.8165 16 19.3498V20.9498L23.9 17.7998C24.4 17.5998 24.8753 17.6498 25.326 17.9498C25.7753 18.2498 26 18.6665 26 19.1998V21.9998H42V38.7498C42 39.6498 41.6833 40.4165 41.05 41.0498C40.4167 41.6831 39.65 41.9998 38.75 41.9998H9.25ZM40 23.9998H24V19.8998L14 23.8998V19.9998L8.75 22.3498C8.51667 22.4498 8.33333 22.5911 8.2 22.7738C8.06667 22.9578 8 23.1831 8 23.4498V38.7498C8 39.1165 8.11667 39.4165 8.35 39.6498C8.58333 39.8831 8.88333 39.9998 9.25 39.9998H38.75C39.1167 39.9998 39.4167 39.8831 39.65 39.6498C39.8833 39.4165 40 39.1165 40 38.7498V23.9998ZM24 35.0998C24.4 35.0998 24.7587 34.9411 25.076 34.6238C25.392 34.3078 25.55 33.9498 25.55 33.5498V30.4498C25.55 30.0498 25.4 29.6918 25.1 29.3758C24.8 29.0585 24.4333 28.8998 24 28.8998C23.6 28.8998 23.242 29.0585 22.926 29.3758C22.6087 29.6918 22.45 30.0498 22.45 30.4498V33.5498C22.45 33.9498 22.6 34.3078 22.9 34.6238C23.2 34.9411 23.5667 35.0998 24 35.0998ZM16 35.0998C16.4 35.0998 16.7587 34.9411 17.076 34.6238C17.392 34.3078 17.55 33.9498 17.55 33.5498V30.4498C17.55 30.0498 17.4 29.6918 17.1 29.3758C16.8 29.0585 16.4333 28.8998 16 28.8998C15.6 28.8998 15.242 29.0585 14.926 29.3758C14.6087 29.6918 14.45 30.0498 14.45 30.4498V33.5498C14.45 33.9498 14.6 34.3078 14.9 34.6238C15.2 34.9411 15.5667 35.0998 16 35.0998ZM32 35.0998C32.4 35.0998 32.7587 34.9411 33.076 34.6238C33.392 34.3078 33.55 33.9498 33.55 33.5498V30.4498C33.55 30.0498 33.4 29.6918 33.1 29.3758C32.8 29.0585 32.4333 28.8998 32 28.8998C31.6 28.8998 31.242 29.0585 30.926 29.3758C30.6087 29.6918 30.45 30.0498 30.45 30.4498V33.5498C30.45 33.9498 30.6 34.3078 30.9 34.6238C31.2 34.9411 31.5667 35.0998 32 35.0998ZM42 21.9998H35.75L37.65 8.3998C37.6833 8.16647 37.792 7.96647 37.976 7.7998C38.1587 7.63314 38.4 7.5498 38.7 7.5498H39.3C39.6 7.5498 39.842 7.63314 40.026 7.7998C40.2087 7.96647 40.3167 8.16647 40.35 8.3998L42 21.9998ZM38.75 39.9998H8H40H38.75Z" fill="#B16A27"/>
</g>
</svg>
