<svg width="48" height="48" viewBox="0 0 48 48" fill="none" xmlns="http://www.w3.org/2000/svg">
<mask id="mask0_1443_596" style="mask-type:alpha" maskUnits="userSpaceOnUse" x="0" y="0" width="48" height="48">
<rect width="48" height="48" fill="#D9D9D9"/>
</mask>
<g mask="url(#mask0_1443_596)">
<path d="M19.1 42.35C18.7667 42.45 18.5 42.4167 18.3 42.25C18.1 42.0833 18 41.85 18 41.55C18 41.4167 18.0413 41.2667 18.124 41.1C18.208 40.9333 18.3167 40.8 18.45 40.7L22 38.1V25.7L6.35 30.3C5.98333 30.4 5.66667 30.35 5.4 30.15C5.13333 29.95 5 29.65 5 29.25C5 29.05 5.05867 28.85 5.176 28.65C5.292 28.45 5.43333 28.3 5.6 28.2L22 18.55V7C22 6.43333 22.192 5.958 22.576 5.574C22.9587 5.19133 23.4333 5 24 5C24.6 5 25.0833 5.19133 25.45 5.574C25.8167 5.958 26 6.43333 26 7V18.55L42.4 28.2C42.5667 28.3 42.7087 28.45 42.826 28.65C42.942 28.85 43 29.05 43 29.25C43 29.65 42.8667 29.95 42.6 30.15C42.3333 30.35 42.0167 30.4 41.65 30.3L26 25.7V38L29.55 40.7C29.6833 40.8 29.792 40.9333 29.876 41.1C29.9587 41.2667 30 41.4167 30 41.55C30 41.85 29.9 42.0833 29.7 42.25C29.5 42.4167 29.2333 42.45 28.9 42.35L24 40.9L19.1 42.35Z" fill="#D66199"/>
</g>
</svg>
