<svg width="48" height="48" viewBox="0 0 48 48" fill="none" xmlns="http://www.w3.org/2000/svg">
<mask id="mask0_1401_1092" style="mask-type:alpha" maskUnits="userSpaceOnUse" x="0" y="0" width="48" height="48">
<rect width="48" height="48" fill="#D9D9D9"/>
</mask>
<g mask="url(#mask0_1401_1092)">
<path d="M14.7484 37.7996C13.9484 37.7996 13.2904 37.5243 12.7744 36.9736C12.2571 36.4243 11.9984 35.7496 11.9984 34.9496V18.5996L8.64844 10.8496H5.89844C5.63177 10.8496 5.39844 10.7496 5.19844 10.5496C4.99844 10.3496 4.89844 10.1163 4.89844 9.84961C4.89844 9.54961 4.99844 9.30761 5.19844 9.12361C5.39844 8.94094 5.63177 8.84961 5.89844 8.84961H8.94844C9.24844 8.84961 9.53977 8.94094 9.82244 9.12361C10.1064 9.30761 10.3151 9.54961 10.4484 9.84961L13.0984 15.9996H39.2984C39.8984 15.9996 40.3571 16.2576 40.6744 16.7736C40.9904 17.2909 41.0151 17.8163 40.7484 18.3496L35.8984 27.7996C37.1984 27.9329 38.2818 28.4743 39.1484 29.4236C40.0151 30.3743 40.4484 31.4996 40.4484 32.7996C40.4484 34.1996 39.9738 35.3829 39.0244 36.3496C38.0738 37.3163 36.8984 37.7996 35.4984 37.7996C34.0984 37.7996 32.9151 37.3163 31.9484 36.3496C30.9818 35.3829 30.4984 34.1996 30.4984 32.7996C30.4984 32.1663 30.6071 31.5743 30.8244 31.0236C31.0404 30.4743 31.3484 29.9829 31.7484 29.5496L22.3984 28.6996L17.3984 36.1496C17.0984 36.6163 16.7151 37.0083 16.2484 37.3256C15.7818 37.6416 15.2818 37.7996 14.7484 37.7996ZM33.6984 27.7496L38.6484 17.9996L13.8984 18.0496L16.4984 23.9996C16.7651 24.6663 17.2071 25.2243 17.8244 25.6736C18.4404 26.1243 19.2151 26.3996 20.1484 26.4996L33.6984 27.7496ZM14.7484 35.7496C15.0151 35.7496 15.3484 35.5163 15.7484 35.0496L20.1984 28.4996C18.8318 28.3329 17.7238 27.9743 16.8744 27.4236C16.0238 26.8743 15.3651 26.1329 14.8984 25.1996L13.9984 23.0496V34.9496C13.9984 35.1829 14.0651 35.3743 14.1984 35.5236C14.3318 35.6743 14.5151 35.7496 14.7484 35.7496ZM35.4484 35.8496C36.3151 35.8496 37.0318 35.5583 37.5984 34.9756C38.1651 34.3916 38.4484 33.6829 38.4484 32.8496C38.4484 31.9829 38.1651 31.2663 37.5984 30.6996C37.0318 30.1329 36.3151 29.8496 35.4484 29.8496C34.6151 29.8496 33.9071 30.1329 33.3244 30.6996C32.7404 31.2663 32.4484 31.9829 32.4484 32.8496C32.4484 33.6829 32.7404 34.3916 33.3244 34.9756C33.9071 35.5583 34.6151 35.8496 35.4484 35.8496Z" fill="#A0876F"/>
</g>
</svg>
