<svg width="48" height="48" viewBox="0 0 48 48" fill="none" xmlns="http://www.w3.org/2000/svg">
<mask id="mask0_1443_1637" style="mask-type:alpha" maskUnits="userSpaceOnUse" x="0" y="0" width="48" height="48">
<rect width="48" height="48" fill="#D9D9D9"/>
</mask>
<g mask="url(#mask0_1443_1637)">
<path d="M12 39.25C11.0667 39.25 10.292 38.942 9.676 38.326C9.05867 37.7087 8.75 36.9333 8.75 36C8.75 35.0667 9.05867 34.2913 9.676 33.674C10.292 33.058 11.0667 32.75 12 32.75C12.9333 32.75 13.708 33.058 14.324 33.674C14.9413 34.2913 15.25 35.0667 15.25 36C15.25 36.9333 14.9413 37.7087 14.324 38.326C13.708 38.942 12.9333 39.25 12 39.25ZM28 39.25C27.0667 39.25 26.292 38.942 25.676 38.326C25.0587 37.7087 24.75 36.9333 24.75 36C24.75 35.0667 25.0587 34.2913 25.676 33.674C26.292 33.058 27.0667 32.75 28 32.75C28.9333 32.75 29.7087 33.058 30.326 33.674C30.942 34.2913 31.25 35.0667 31.25 36C31.25 36.9333 30.942 37.7087 30.326 38.326C29.7087 38.942 28.9333 39.25 28 39.25ZM20 31.25C19.0667 31.25 18.292 30.9413 17.676 30.324C17.0587 29.708 16.75 28.9333 16.75 28C16.75 27.0667 17.0587 26.2913 17.676 25.674C18.292 25.058 19.0667 24.75 20 24.75C20.9333 24.75 21.7087 25.058 22.326 25.674C22.942 26.2913 23.25 27.0667 23.25 28C23.25 28.9333 22.942 29.708 22.326 30.324C21.7087 30.9413 20.9333 31.25 20 31.25ZM36 31.25C35.0667 31.25 34.2913 30.9413 33.674 30.324C33.058 29.708 32.75 28.9333 32.75 28C32.75 27.0667 33.058 26.2913 33.674 25.674C34.2913 25.058 35.0667 24.75 36 24.75C36.9333 24.75 37.7087 25.058 38.326 25.674C38.942 26.2913 39.25 27.0667 39.25 28C39.25 28.9333 38.942 29.708 38.326 30.324C37.7087 30.9413 36.9333 31.25 36 31.25ZM12 23.25C11.0667 23.25 10.292 22.9413 9.676 22.324C9.05867 21.708 8.75 20.9333 8.75 20C8.75 19.0667 9.05867 18.2913 9.676 17.674C10.292 17.058 11.0667 16.75 12 16.75C12.9333 16.75 13.708 17.058 14.324 17.674C14.9413 18.2913 15.25 19.0667 15.25 20C15.25 20.9333 14.9413 21.708 14.324 22.324C13.708 22.9413 12.9333 23.25 12 23.25ZM28 23.25C27.0667 23.25 26.292 22.9413 25.676 22.324C25.0587 21.708 24.75 20.9333 24.75 20C24.75 19.0667 25.0587 18.2913 25.676 17.674C26.292 17.058 27.0667 16.75 28 16.75C28.9333 16.75 29.7087 17.058 30.326 17.674C30.942 18.2913 31.25 19.0667 31.25 20C31.25 20.9333 30.942 21.708 30.326 22.324C29.7087 22.9413 28.9333 23.25 28 23.25ZM20 15.25C19.0667 15.25 18.292 14.9413 17.676 14.324C17.0587 13.708 16.75 12.9333 16.75 12C16.75 11.0667 17.0587 10.292 17.676 9.676C18.292 9.05867 19.0667 8.75 20 8.75C20.9333 8.75 21.7087 9.05867 22.326 9.676C22.942 10.292 23.25 11.0667 23.25 12C23.25 12.9333 22.942 13.708 22.326 14.324C21.7087 14.9413 20.9333 15.25 20 15.25ZM36 15.25C35.0667 15.25 34.2913 14.9413 33.674 14.324C33.058 13.708 32.75 12.9333 32.75 12C32.75 11.0667 33.058 10.292 33.674 9.676C34.2913 9.05867 35.0667 8.75 36 8.75C36.9333 8.75 37.7087 9.05867 38.326 9.676C38.942 10.292 39.25 11.0667 39.25 12C39.25 12.9333 38.942 13.708 38.326 14.324C37.7087 14.9413 36.9333 15.25 36 15.25Z" fill="#9A9A9A"/>
</g>
</svg>
