<svg width="48" height="48" viewBox="0 0 48 48" fill="none" xmlns="http://www.w3.org/2000/svg">
<mask id="mask0_1443_2418" style="mask-type:alpha" maskUnits="userSpaceOnUse" x="0" y="0" width="48" height="48">
<rect width="48" height="48" fill="#D9D9D9"/>
</mask>
<g mask="url(#mask0_1443_2418)">
<path d="M22 40H11.25C10.3167 40 9.542 39.692 8.926 39.076C8.30867 38.4587 8 37.6833 8 36.75V11.25C8 10.3167 8.30867 9.542 8.926 8.926C9.542 8.30867 10.3167 8 11.25 8H20.5C20.7 7.23333 21.1167 6.58333 21.75 6.05C22.3833 5.51667 23.1333 5.25 24 5.25C24.8667 5.25 25.6247 5.51667 26.274 6.05C26.9247 6.58333 27.3333 7.23333 27.5 8H36.75C37.6833 8 38.4587 8.30867 39.076 8.926C39.692 9.542 40 10.3167 40 11.25V20H38V11.25C38 10.9167 37.8747 10.6253 37.624 10.376C37.3747 10.1253 37.0833 10 36.75 10H32V11.25C32 12.1167 31.6833 12.8667 31.05 13.5C30.4167 14.1333 29.65 14.45 28.75 14.45H19.25C18.35 14.45 17.5833 14.1333 16.95 13.5C16.3167 12.8667 16 12.1167 16 11.25V10H11.25C10.9167 10 10.6253 10.1253 10.376 10.376C10.1253 10.6253 10 10.9167 10 11.25V36.75C10 37.0833 10.1253 37.3747 10.376 37.624C10.6253 37.8747 10.9167 38 11.25 38H22V40ZM31 35.6L41.65 24.95C41.85 24.75 42.0833 24.6413 42.35 24.624C42.6167 24.608 42.8667 24.7167 43.1 24.95C43.3 25.15 43.4 25.3747 43.4 25.624C43.4 25.8747 43.3 26.1167 43.1 26.35L32.15 37.3C31.8167 37.6333 31.4333 37.8 31 37.8C30.5667 37.8 30.1833 37.6333 29.85 37.3L24.6 32C24.4 31.8333 24.2913 31.608 24.274 31.324C24.258 31.0413 24.3667 30.8 24.6 30.6C24.8 30.4 25.0333 30.3 25.3 30.3C25.5667 30.3 25.8 30.4 26 30.6L31 35.6ZM24 10.45C24.4667 10.45 24.85 10.3 25.15 10C25.45 9.7 25.6 9.31667 25.6 8.85C25.6 8.38333 25.45 8 25.15 7.7C24.85 7.4 24.4667 7.25 24 7.25C23.5333 7.25 23.15 7.4 22.85 7.7C22.55 8 22.4 8.38333 22.4 8.85C22.4 9.31667 22.55 9.7 22.85 10C23.15 10.3 23.5333 10.45 24 10.45Z" fill="#31A53D"/>
</g>
</svg>
