<svg width="48" height="48" viewBox="0 0 48 48" fill="none" xmlns="http://www.w3.org/2000/svg">
<mask id="mask0_1401_738" style="mask-type:alpha" maskUnits="userSpaceOnUse" x="0" y="0" width="48" height="48">
<rect width="48" height="48" fill="#D9D9D9"/>
</mask>
<g mask="url(#mask0_1401_738)">
<path d="M24 41.9998C20.1 41.9998 16.792 40.6411 14.076 37.9238C11.3587 35.2078 10 31.8998 10 27.9998C10 24.9998 10.8333 22.0411 12.5 19.1238C14.1667 16.2078 16.45 13.6331 19.35 11.3998C19.9167 10.9331 20.5167 10.8578 21.15 11.1738C21.7833 11.4911 22.1 11.9831 22.1 12.6498V13.4498C22.1 14.7498 22.7 15.9331 23.9 16.9998C25.1 18.0665 26.4833 18.5998 28.05 18.5998C28.6833 18.5998 29.292 18.4911 29.876 18.2738C30.4587 18.0578 31.0167 17.7665 31.55 17.3998C31.8167 17.1665 32.108 17.0498 32.424 17.0498C32.7413 17.0498 33.0333 17.1665 33.3 17.3998C34.7667 18.6998 35.9167 20.2831 36.75 22.1498C37.5833 24.0165 38 25.9665 38 27.9998C38 31.8998 36.6413 35.2078 33.924 37.9238C31.208 40.6411 27.9 41.9998 24 41.9998ZM12 27.9998C12 30.2998 12.6167 32.4085 13.85 34.3258C15.0833 36.2418 16.7333 37.6831 18.8 38.6498C18.5333 38.2498 18.3333 37.8331 18.2 37.3998C18.0667 36.9665 18 36.5331 18 36.0998C18 35.2998 18.1587 34.5498 18.476 33.8498C18.792 33.1498 19.2167 32.5165 19.75 31.9498L24 27.7998L28.25 31.9498C28.8167 32.5165 29.25 33.1498 29.55 33.8498C29.85 34.5498 30 35.2998 30 36.0998C30 36.5331 29.9333 36.9665 29.8 37.3998C29.6667 37.8331 29.4667 38.2498 29.2 38.6498C31.2667 37.6831 32.9167 36.2418 34.15 34.3258C35.3833 32.4085 36 30.2998 36 27.9998C36 26.3331 35.692 24.7578 35.076 23.2738C34.4587 21.7911 33.5667 20.4665 32.4 19.2998C31.7333 19.7331 31.0333 20.0578 30.3 20.2738C29.5667 20.4911 28.8167 20.5998 28.05 20.5998C25.95 20.5998 24.1413 19.9165 22.624 18.5498C21.108 17.1831 20.25 15.4665 20.05 13.3998C17.45 15.5998 15.4587 17.9585 14.076 20.4758C12.692 22.9918 12 25.4998 12 27.9998ZM24 30.5998L21.15 33.3998C20.7833 33.7665 20.5 34.1831 20.3 34.6498C20.1 35.1165 20 35.5998 20 36.0998C20 37.1665 20.392 38.0831 21.176 38.8498C21.9587 39.6165 22.9 39.9998 24 39.9998C25.1 39.9998 26.042 39.6165 26.826 38.8498C27.6087 38.0831 28 37.1665 28 36.0998C28 35.5665 27.9 35.0745 27.7 34.6238C27.5 34.1745 27.2167 33.7665 26.85 33.3998L24 30.5998Z" fill="#EA3C3C"/>
</g>
</svg>
