<svg width="48" height="48" viewBox="0 0 48 48" fill="none" xmlns="http://www.w3.org/2000/svg">
<mask id="mask0_1401_2890" style="mask-type:alpha" maskUnits="userSpaceOnUse" x="0" y="0" width="48" height="48">
<rect width="48" height="48" fill="#D9D9D9"/>
</mask>
<g mask="url(#mask0_1401_2890)">
<path d="M11.5993 40C11.1459 40 10.766 39.8452 10.4596 39.5356C10.1532 39.226 10 38.8423 10 38.3846V11.2307C10 10.3102 10.3083 9.54167 10.925 8.925C11.5417 8.30833 12.3102 8 13.2307 8H22.7693C23.6898 8 24.4583 8.30833 25.075 8.925C25.6917 9.54167 26 10.3102 26 11.2307V23.2308H27.8461C28.7346 23.2308 29.4952 23.5471 30.1279 24.1798C30.7606 24.8125 31.077 25.5731 31.077 26.4616V35.6154C31.077 36.3359 31.3327 36.9519 31.8443 37.4634C32.3558 37.975 32.9718 38.2307 33.6923 38.2307C34.4128 38.2307 35.0289 37.975 35.5404 37.4634C36.0519 36.9519 36.3077 36.3359 36.3077 35.6154V21.9846C36.0077 22.1769 35.691 22.3173 35.3577 22.4057C35.0244 22.4942 34.6744 22.5384 34.3077 22.5384C33.2523 22.5384 32.3603 22.1741 31.6315 21.4454C30.9028 20.7167 30.5385 19.8246 30.5385 18.7693C30.5385 17.8564 30.8109 17.0519 31.3557 16.3558C31.9007 15.6596 32.618 15.2308 33.5077 15.0692L29.3193 10.8807C29.1474 10.7089 29.0551 10.5064 29.0423 10.2731C29.0295 10.0397 29.1256 9.82057 29.3306 9.6156C29.5128 9.4334 29.716 9.34038 29.9404 9.33655C30.1648 9.33268 30.3757 9.42562 30.5731 9.61535L36.8077 15.8154C37.2051 16.2128 37.516 16.6692 37.7404 17.1846C37.9648 17.6999 38.077 18.2281 38.077 18.7693V35.6154C38.077 36.8431 37.6538 37.8808 36.8076 38.7284C35.9614 39.5761 34.9255 40 33.6999 40C32.4743 40 31.4359 39.5761 30.5847 38.7284C29.7334 37.8808 29.3077 36.8431 29.3077 35.6154V26.2307C29.3077 25.8718 29.1923 25.5769 28.9616 25.3461C28.7308 25.1154 28.4359 25 28.077 25H26V38.3846C26 38.8423 25.8467 39.226 25.54 39.5356C25.2333 39.8452 24.8533 40 24.4 40H11.5993ZM12 21H24V11.2307C24 10.9231 23.8718 10.641 23.6154 10.3846C23.359 10.1282 23.0769 10 22.7693 10H13.2307C12.9231 10 12.641 10.1282 12.3846 10.3846C12.1282 10.641 12 10.9231 12 11.2307V21ZM34.3077 20.7693C34.8744 20.7693 35.3494 20.5776 35.7327 20.1943C36.116 19.8109 36.3077 19.3359 36.3077 18.7693C36.3077 18.2026 36.116 17.7276 35.7327 17.3443C35.3494 16.9609 34.8744 16.7693 34.3077 16.7693C33.741 16.7693 33.266 16.9609 32.8827 17.3443C32.4994 17.7276 32.3077 18.2026 32.3077 18.7693C32.3077 19.3359 32.4994 19.8109 32.8827 20.1943C33.266 20.5776 33.741 20.7693 34.3077 20.7693ZM12 38H24V23H12V38Z" fill="#7D5AE7"/>
</g>
</svg>
