<svg width="48" height="48" viewBox="0 0 48 48" fill="none" xmlns="http://www.w3.org/2000/svg">
<mask id="mask0_1401_1167" style="mask-type:alpha" maskUnits="userSpaceOnUse" x="0" y="0" width="48" height="48">
<rect width="48" height="48" fill="#D9D9D9"/>
</mask>
<g mask="url(#mask0_1401_1167)">
<path d="M23 33.3L16.15 40.05C15.9833 40.25 15.7587 40.35 15.476 40.35C15.192 40.35 14.9667 40.2333 14.8 40C14.5667 39.8333 14.45 39.6087 14.45 39.326C14.45 39.042 14.5667 38.8 14.8 38.6L23 30.4V25H17.6L9.35 33.25C9.18333 33.45 8.95867 33.55 8.676 33.55C8.392 33.55 8.15 33.4333 7.95 33.2C7.75 33.0333 7.65 32.8087 7.65 32.526C7.65 32.242 7.75 32.0167 7.95 31.85L14.7 25H5.95C5.68333 25 5.45867 24.9087 5.276 24.726C5.092 24.542 5 24.3 5 24C5 23.7333 5.092 23.5 5.276 23.3C5.45867 23.1 5.7 23 6 23H14.7L7.95 16.2C7.75 16.0333 7.65 15.808 7.65 15.524C7.65 15.2413 7.76667 15 8 14.8C8.16667 14.6 8.392 14.5 8.676 14.5C8.95867 14.5 9.2 14.6 9.4 14.8L17.6 23H23V17.6L14.75 9.4C14.55 9.23333 14.45 9.008 14.45 8.724C14.45 8.44133 14.5667 8.2 14.8 8C14.9667 7.8 15.192 7.7 15.476 7.7C15.7587 7.7 15.9833 7.8 16.15 8L23 14.7V6C23 5.73333 23.0913 5.5 23.274 5.3C23.458 5.1 23.7 5 24 5C24.2667 5 24.5 5.1 24.7 5.3C24.9 5.5 25 5.73333 25 6V14.7L31.8 8C31.9667 7.8 32.192 7.7 32.476 7.7C32.7587 7.7 33 7.8 33.2 8C33.4 8.2 33.5 8.44133 33.5 8.724C33.5 9.008 33.4 9.23333 33.2 9.4L25 17.6V23H30.4L38.6 14.8C38.7667 14.6 38.992 14.5 39.276 14.5C39.5587 14.5 39.8 14.6167 40 14.85C40.2 15.0167 40.3 15.2413 40.3 15.524C40.3 15.808 40.2 16.0333 40 16.2L33.3 23H42C42.2667 23 42.5 23.1 42.7 23.3C42.9 23.5 43 23.7333 43 24C43 24.3 42.9 24.542 42.7 24.726C42.5 24.9087 42.2667 25 42 25H33.3L40 31.85C40.2 32.0167 40.3 32.242 40.3 32.526C40.3 32.8087 40.2 33.0333 40 33.2C39.8 33.4333 39.5587 33.55 39.276 33.55C38.992 33.55 38.7667 33.4333 38.6 33.2L30.4 25H25V30.4L33.2 38.65C33.4 38.8167 33.5 39.042 33.5 39.326C33.5 39.6087 33.3833 39.85 33.15 40.05C32.9833 40.25 32.7587 40.35 32.476 40.35C32.192 40.35 31.9667 40.25 31.8 40.05L25 33.3V42.05C25 42.3167 24.9 42.542 24.7 42.726C24.5 42.9087 24.2667 43 24 43C23.7 43 23.458 42.9087 23.274 42.726C23.0913 42.542 23 42.3 23 42V33.3Z" fill="#48C9E6"/>
</g>
</svg>
