<svg width="48" height="48" viewBox="0 0 48 48" fill="none" xmlns="http://www.w3.org/2000/svg">
<mask id="mask0_1443_2402" style="mask-type:alpha" maskUnits="userSpaceOnUse" x="0" y="0" width="48" height="48">
<rect width="48" height="48" fill="#D9D9D9"/>
</mask>
<g mask="url(#mask0_1443_2402)">
<path d="M19.84 18C19.5867 18 19.3733 17.9133 19.2 17.74C19.0267 17.5667 18.94 17.3533 18.94 17.1V4.96C18.94 4.70667 19.0267 4.49333 19.2 4.32C19.3733 4.13333 19.5867 4.04 19.84 4.04H24.56C25.9867 4.04 27.0867 4.36667 27.86 5.02C28.6467 5.67333 29.04 6.55333 29.04 7.66C29.04 8.43333 28.8533 9.08 28.48 9.6C28.12 10.1067 27.6533 10.4867 27.08 10.74C27.88 10.9933 28.5333 11.4 29.04 11.96C29.56 12.52 29.82 13.2267 29.82 14.08C29.82 15.3067 29.4067 16.2667 28.58 16.96C27.7533 17.6533 26.4533 18 24.68 18H19.84ZM24.08 10.08C25.2667 10.08 26.1 9.88 26.58 9.48C27.06 9.08 27.3 8.52 27.3 7.8C27.3 7.17333 27.04 6.67333 26.52 6.3C26.0133 5.92667 25.3133 5.74 24.42 5.74H20.76V10.08H24.08ZM24.5 16.3C25.7933 16.3 26.7067 16.1 27.24 15.7C27.7867 15.3 28.06 14.7333 28.06 14C28.06 12.48 26.88 11.72 24.52 11.72H20.76V16.3H24.5Z" fill="#50D05D"/>
<path d="M14.624 44C14.4576 44 14.312 43.9375 14.1872 43.8125C14.0624 43.6875 14 43.5417 14 43.375C14 43.1875 14.0624 43.0362 14.1872 42.9212C14.312 42.8071 14.4576 42.75 14.624 42.75H16.1529V34.625H14.624C14.4576 34.625 14.312 34.5625 14.1872 34.4375C14.0624 34.3125 14 34.1667 14 34C14 33.8125 14.0624 33.6613 14.1872 33.5463C14.312 33.4321 14.4576 33.375 14.624 33.375H16.1529V25.25H14.624C14.4576 25.25 14.312 25.1875 14.1872 25.0625C14.0624 24.9375 14 24.7917 14 24.625C14 24.4375 14.0624 24.2863 14.1872 24.1713C14.312 24.0571 14.4576 24 14.624 24H33.376C33.5632 24 33.7142 24.0625 33.829 24.1875C33.943 24.3125 34 24.4583 34 24.625C34 24.8125 33.943 24.9633 33.829 25.0775C33.7142 25.1925 33.5632 25.25 33.376 25.25H31.8783V33.375H33.376C33.5632 33.375 33.7142 33.4375 33.829 33.5625C33.943 33.6875 34 33.8333 34 34C34 34.1875 33.943 34.3387 33.829 34.4537C33.7142 34.5679 33.5632 34.625 33.376 34.625H31.8783V42.75H33.376C33.5632 42.75 33.7142 42.8125 33.829 42.9375C33.943 43.0625 34 43.2083 34 43.375C34 43.5625 33.943 43.7138 33.829 43.8288C33.7142 43.9429 33.5632 44 33.376 44H14.624ZM17.4009 42.75H30.6303V34.625H30.0062C29.8398 34.625 29.6942 34.5625 29.5694 34.4375C29.4446 34.3125 29.3822 34.1667 29.3822 34C29.3822 33.8125 29.4446 33.6613 29.5694 33.5463C29.6942 33.4321 29.8398 33.375 30.0062 33.375H30.6303V25.25H17.4009V33.375H18.025C18.1914 33.375 18.337 33.4375 18.4618 33.5625C18.5866 33.6875 18.649 33.8333 18.649 34C18.649 34.1875 18.5866 34.3387 18.4618 34.4537C18.337 34.5679 18.1914 34.625 18.025 34.625H17.4009V42.75ZM24.0156 38.2188C24.8892 38.2188 25.6277 37.9167 26.2309 37.3125C26.8341 36.7083 27.1357 35.9896 27.1357 35.1562C27.1357 34.5938 27.0163 34.1196 26.7775 33.7337C26.5379 33.3487 26.0541 32.7292 25.3261 31.875L24.7956 31.2812C24.5876 31.0312 24.3276 30.9062 24.0156 30.9062C23.7036 30.9062 23.4436 31.0312 23.2356 31.2812L22.7051 31.875C21.9771 32.7292 21.4937 33.3487 21.2549 33.7337C21.0153 34.1196 20.8955 34.5938 20.8955 35.1562C20.8955 35.9896 21.1971 36.7083 21.8003 37.3125C22.4035 37.9167 23.142 38.2188 24.0156 38.2188Z" fill="#50D05D"/>
</g>
</svg>
