<svg width="48" height="48" viewBox="0 0 48 48" fill="none" xmlns="http://www.w3.org/2000/svg">
<mask id="mask0_1443_671" style="mask-type:alpha" maskUnits="userSpaceOnUse" x="0" y="0" width="48" height="48">
<rect width="48" height="48" fill="#D9D9D9"/>
</mask>
<g mask="url(#mask0_1443_671)">
<path d="M20.84 18.1C20.5867 18.1 20.3733 18.0133 20.2 17.84C20.0267 17.6667 19.94 17.4533 19.94 17.2V4.96C19.94 4.70667 20.0267 4.49333 20.2 4.32C20.3733 4.13333 20.5867 4.04 20.84 4.04H28.62C28.86 4.04 29.06 4.12667 29.22 4.3C29.3933 4.46 29.48 4.66 29.48 4.9C29.48 5.14 29.3933 5.34 29.22 5.5C29.06 5.66 28.86 5.74 28.62 5.74H21.76V10.16H27.92C28.16 10.16 28.36 10.2467 28.52 10.42C28.6933 10.58 28.78 10.78 28.78 11.02C28.78 11.26 28.6933 11.46 28.52 11.62C28.36 11.78 28.16 11.86 27.92 11.86H21.76V17.2C21.76 17.4533 21.6667 17.6667 21.48 17.84C21.3067 18.0133 21.0933 18.1 20.84 18.1Z" fill="#FF9933"/>
<path d="M14.624 44C14.4576 44 14.312 43.9375 14.1872 43.8125C14.0624 43.6875 14 43.5417 14 43.375C14 43.1875 14.0624 43.0362 14.1872 42.9212C14.312 42.8071 14.4576 42.75 14.624 42.75H16.1529V34.625H14.624C14.4576 34.625 14.312 34.5625 14.1872 34.4375C14.0624 34.3125 14 34.1667 14 34C14 33.8125 14.0624 33.6613 14.1872 33.5463C14.312 33.4321 14.4576 33.375 14.624 33.375H16.1529V25.25H14.624C14.4576 25.25 14.312 25.1875 14.1872 25.0625C14.0624 24.9375 14 24.7917 14 24.625C14 24.4375 14.0624 24.2863 14.1872 24.1713C14.312 24.0571 14.4576 24 14.624 24H33.376C33.5632 24 33.7142 24.0625 33.829 24.1875C33.943 24.3125 34 24.4583 34 24.625C34 24.8125 33.943 24.9633 33.829 25.0775C33.7142 25.1925 33.5632 25.25 33.376 25.25H31.8783V33.375H33.376C33.5632 33.375 33.7142 33.4375 33.829 33.5625C33.943 33.6875 34 33.8333 34 34C34 34.1875 33.943 34.3387 33.829 34.4537C33.7142 34.5679 33.5632 34.625 33.376 34.625H31.8783V42.75H33.376C33.5632 42.75 33.7142 42.8125 33.829 42.9375C33.943 43.0625 34 43.2083 34 43.375C34 43.5625 33.943 43.7138 33.829 43.8288C33.7142 43.9429 33.5632 44 33.376 44H14.624ZM17.4009 42.75H30.6303V34.625H30.0062C29.8398 34.625 29.6942 34.5625 29.5694 34.4375C29.4446 34.3125 29.3822 34.1667 29.3822 34C29.3822 33.8125 29.4446 33.6613 29.5694 33.5463C29.6942 33.4321 29.8398 33.375 30.0062 33.375H30.6303V25.25H17.4009V33.375H18.025C18.1914 33.375 18.337 33.4375 18.4618 33.5625C18.5866 33.6875 18.649 33.8333 18.649 34C18.649 34.1875 18.5866 34.3387 18.4618 34.4537C18.337 34.5679 18.1914 34.625 18.025 34.625H17.4009V42.75ZM24.0156 38.2188C24.8892 38.2188 25.6277 37.9167 26.2309 37.3125C26.8341 36.7083 27.1357 35.9896 27.1357 35.1562C27.1357 34.5938 27.0163 34.1196 26.7775 33.7337C26.5379 33.3487 26.0541 32.7292 25.3261 31.875L24.7956 31.2812C24.5876 31.0312 24.3276 30.9062 24.0156 30.9062C23.7036 30.9062 23.4436 31.0312 23.2356 31.2812L22.7051 31.875C21.9771 32.7292 21.4937 33.3487 21.2549 33.7337C21.0153 34.1196 20.8955 34.5938 20.8955 35.1562C20.8955 35.9896 21.1971 36.7083 21.8003 37.3125C22.4035 37.9167 23.142 38.2188 24.0156 38.2188Z" fill="#FF9933"/>
</g>
</svg>
