<svg width="48" height="48" viewBox="0 0 48 48" fill="none" xmlns="http://www.w3.org/2000/svg">
<mask id="mask0_1443_563" style="mask-type:alpha" maskUnits="userSpaceOnUse" x="0" y="0" width="48" height="48">
<rect width="48" height="48" fill="#D9D9D9"/>
</mask>
<g mask="url(#mask0_1443_563)">
<path d="M17.34 18.2C15.6467 18.2 14.06 17.88 12.58 17.24C12.42 17.1733 12.2867 17.0667 12.18 16.92C12.0733 16.76 12.02 16.5933 12.02 16.42C12.02 16.1933 12.0933 16 12.24 15.84C12.4 15.6667 12.6 15.58 12.84 15.58C12.9733 15.58 13.1 15.6067 13.22 15.66C14.4467 16.2067 15.76 16.48 17.16 16.48C19.4933 16.48 20.66 15.7133 20.66 14.18C20.66 13.78 20.5067 13.4467 20.2 13.18C19.9067 12.9133 19.54 12.7067 19.1 12.56C18.66 12.4 18.0333 12.2133 17.22 12C16.14 11.72 15.2667 11.4533 14.6 11.2C13.9333 10.9333 13.36 10.54 12.88 10.02C12.4 9.5 12.16 8.80667 12.16 7.94C12.16 7.18 12.36 6.49333 12.76 5.88C13.16 5.25333 13.7467 4.76 14.52 4.4C15.3067 4.02667 16.2467 3.84 17.34 3.84C18.8067 3.84 20.1333 4.06 21.32 4.5C21.6933 4.63333 21.88 4.9 21.88 5.3C21.88 5.51333 21.8067 5.70667 21.66 5.88C21.5133 6.05333 21.32 6.14 21.08 6.14C21 6.14 20.8933 6.11333 20.76 6.06C19.72 5.7 18.6467 5.52 17.54 5.52C16.4867 5.52 15.6267 5.72 14.96 6.12C14.3067 6.52 13.98 7.08 13.98 7.8C13.98 8.28 14.1333 8.67333 14.44 8.98C14.76 9.27333 15.1533 9.50667 15.62 9.68C16.1 9.84 16.7467 10.0133 17.56 10.2C18.6133 10.4533 19.46 10.7067 20.1 10.96C20.7533 11.2133 21.3067 11.6067 21.76 12.14C22.2267 12.6733 22.46 13.3933 22.46 14.3C22.46 15.0467 22.2467 15.72 21.82 16.32C21.3933 16.9067 20.7933 17.3667 20.02 17.7C19.2467 18.0333 18.3533 18.2 17.34 18.2ZM26.1642 18C25.9109 18 25.6976 17.9133 25.5242 17.74C25.3509 17.5667 25.2642 17.3533 25.2642 17.1V4.96C25.2642 4.70667 25.3509 4.49333 25.5242 4.32C25.6976 4.13333 25.9109 4.04 26.1642 4.04H30.8842C32.3109 4.04 33.4109 4.36667 34.1842 5.02C34.9709 5.67333 35.3642 6.55333 35.3642 7.66C35.3642 8.43333 35.1776 9.08 34.8042 9.6C34.4442 10.1067 33.9776 10.4867 33.4042 10.74C34.2042 10.9933 34.8576 11.4 35.3642 11.96C35.8842 12.52 36.1442 13.2267 36.1442 14.08C36.1442 15.3067 35.7309 16.2667 34.9042 16.96C34.0776 17.6533 32.7776 18 31.0042 18H26.1642ZM30.4042 10.08C31.5909 10.08 32.4242 9.88 32.9042 9.48C33.3842 9.08 33.6242 8.52 33.6242 7.8C33.6242 7.17333 33.3642 6.67333 32.8442 6.3C32.3376 5.92667 31.6376 5.74 30.7442 5.74H27.0842V10.08H30.4042ZM30.8242 16.3C32.1176 16.3 33.0309 16.1 33.5642 15.7C34.1109 15.3 34.3842 14.7333 34.3842 14C34.3842 12.48 33.2042 11.72 30.8442 11.72H27.0842V16.3H30.8242Z" fill="#4B94EA"/>
<path d="M14.624 44C14.4576 44 14.312 43.9375 14.1872 43.8125C14.0624 43.6875 14 43.5417 14 43.375C14 43.1875 14.0624 43.0362 14.1872 42.9212C14.312 42.8071 14.4576 42.75 14.624 42.75H16.1529V34.625H14.624C14.4576 34.625 14.312 34.5625 14.1872 34.4375C14.0624 34.3125 14 34.1667 14 34C14 33.8125 14.0624 33.6613 14.1872 33.5463C14.312 33.4321 14.4576 33.375 14.624 33.375H16.1529V25.25H14.624C14.4576 25.25 14.312 25.1875 14.1872 25.0625C14.0624 24.9375 14 24.7917 14 24.625C14 24.4375 14.0624 24.2863 14.1872 24.1713C14.312 24.0571 14.4576 24 14.624 24H33.376C33.5632 24 33.7142 24.0625 33.829 24.1875C33.943 24.3125 34 24.4583 34 24.625C34 24.8125 33.943 24.9633 33.829 25.0775C33.7142 25.1925 33.5632 25.25 33.376 25.25H31.8783V33.375H33.376C33.5632 33.375 33.7142 33.4375 33.829 33.5625C33.943 33.6875 34 33.8333 34 34C34 34.1875 33.943 34.3387 33.829 34.4537C33.7142 34.5679 33.5632 34.625 33.376 34.625H31.8783V42.75H33.376C33.5632 42.75 33.7142 42.8125 33.829 42.9375C33.943 43.0625 34 43.2083 34 43.375C34 43.5625 33.943 43.7138 33.829 43.8288C33.7142 43.9429 33.5632 44 33.376 44H14.624ZM17.4009 42.75H30.6303V34.625H30.0062C29.8398 34.625 29.6942 34.5625 29.5694 34.4375C29.4446 34.3125 29.3822 34.1667 29.3822 34C29.3822 33.8125 29.4446 33.6613 29.5694 33.5463C29.6942 33.4321 29.8398 33.375 30.0062 33.375H30.6303V25.25H17.4009V33.375H18.025C18.1914 33.375 18.337 33.4375 18.4618 33.5625C18.5866 33.6875 18.649 33.8333 18.649 34C18.649 34.1875 18.5866 34.3387 18.4618 34.4537C18.337 34.5679 18.1914 34.625 18.025 34.625H17.4009V42.75ZM24.0156 38.2188C24.8892 38.2188 25.6277 37.9167 26.2309 37.3125C26.8341 36.7083 27.1357 35.9896 27.1357 35.1562C27.1357 34.5938 27.0163 34.1196 26.7775 33.7337C26.5379 33.3487 26.0541 32.7292 25.3261 31.875L24.7956 31.2812C24.5876 31.0312 24.3276 30.9062 24.0156 30.9062C23.7036 30.9062 23.4436 31.0312 23.2356 31.2812L22.7051 31.875C21.9771 32.7292 21.4937 33.3487 21.2549 33.7337C21.0153 34.1196 20.8955 34.5938 20.8955 35.1562C20.8955 35.9896 21.1971 36.7083 21.8003 37.3125C22.4035 37.9167 23.142 38.2188 24.0156 38.2188Z" fill="#4B94EA"/>
</g>
</svg>
