<svg width="48" height="48" viewBox="0 0 48 48" fill="none" xmlns="http://www.w3.org/2000/svg">
<mask id="mask0_1401_1061" style="mask-type:alpha" maskUnits="userSpaceOnUse" x="0" y="0" width="48" height="48">
<rect width="48" height="48" fill="#D9D9D9"/>
</mask>
<g mask="url(#mask0_1401_1061)">
<path d="M13.7063 18.9986C12.9986 18.0575 12.4133 17.0524 11.9505 15.9832C11.4877 14.9139 11.2563 13.7883 11.2563 12.6063V11.887C11.2563 11.6665 11.2729 11.4268 11.3063 11.1678C11.3472 10.8832 11.4594 10.6434 11.6428 10.4486C11.8261 10.2537 12.0473 10.1562 12.3063 10.1562C12.5986 10.1562 12.8486 10.2537 13.0563 10.4486C13.2639 10.6434 13.3473 10.8832 13.3063 11.1678C13.2729 11.3934 13.2479 11.6082 13.2313 11.812C13.2146 12.0159 13.2063 12.2306 13.2063 12.4562C13.2063 13.5408 13.4498 14.5652 13.937 15.5293C14.4242 16.4934 14.9973 17.4178 15.6562 18.3024C16.3306 19.1921 16.9075 20.1447 17.387 21.1601C17.8665 22.1755 18.1062 23.2409 18.1062 24.3563V25.1447C18.0985 25.4293 18.0011 25.6691 17.8139 25.864C17.6267 26.0588 17.3909 26.1563 17.1062 26.1563C16.8216 26.1563 16.58 26.0607 16.3813 25.8697C16.1825 25.6787 16.0909 25.4409 16.1063 25.1563C16.1139 24.9896 16.1242 24.8396 16.137 24.7063C16.1498 24.5729 16.1562 24.4229 16.1562 24.2563C16.1562 23.264 15.9024 22.3377 15.3947 21.4774C14.887 20.6171 14.3242 19.7909 13.7063 18.9986ZM20.5524 18.9986C19.8447 18.0575 19.2594 17.0524 18.7966 15.9832C18.3338 14.9139 18.1024 13.7883 18.1024 12.6063V11.887C18.1024 11.6665 18.1191 11.4268 18.1524 11.1678C18.1934 10.8832 18.3056 10.6434 18.4889 10.4486C18.6723 10.2537 18.8934 10.1562 19.1524 10.1562C19.4447 10.1562 19.6947 10.2537 19.9024 10.4486C20.1101 10.6434 20.1934 10.8832 20.1524 11.1678C20.1191 11.3934 20.0941 11.6082 20.0774 11.812C20.0607 12.0159 20.0524 12.2306 20.0524 12.4562C20.0524 13.5408 20.296 14.5652 20.7832 15.5293C21.2704 16.4934 21.8434 17.4178 22.5024 18.3024C23.1768 19.1921 23.7537 20.1447 24.2332 21.1601C24.7127 22.1755 24.9524 23.2409 24.9524 24.3563V25.1447C24.9447 25.4293 24.8473 25.6691 24.6601 25.864C24.4729 26.0588 24.237 26.1563 23.9524 26.1563C23.6678 26.1563 23.4261 26.0607 23.2274 25.8697C23.0287 25.6787 22.937 25.4409 22.9524 25.1563C22.9601 24.9896 22.9703 24.8396 22.9831 24.7063C22.996 24.5729 23.0024 24.4229 23.0024 24.2563C23.0024 23.264 22.7486 22.3377 22.2409 21.4774C21.7332 20.6171 21.1703 19.7909 20.5524 18.9986ZM27.3986 18.9986C26.6908 18.0575 26.1056 17.0524 25.6428 15.9832C25.18 14.9139 24.9486 13.7883 24.9486 12.6063V11.887C24.9486 11.6665 24.9652 11.4268 24.9986 11.1678C25.0396 10.8832 25.1518 10.6434 25.3351 10.4486C25.5184 10.2537 25.7396 10.1562 25.9985 10.1562C26.2909 10.1562 26.5409 10.2537 26.7485 10.4486C26.9562 10.6434 27.0396 10.8832 26.9985 11.1678C26.9652 11.3934 26.9402 11.6082 26.9235 11.812C26.9069 12.0159 26.8986 12.2306 26.8986 12.4562C26.8986 13.5408 27.1422 14.5652 27.6294 15.5293C28.1165 16.4934 28.6896 17.4178 29.3485 18.3024C30.0229 19.1921 30.5999 20.1447 31.0794 21.1601C31.5588 22.1755 31.7985 23.2409 31.7985 24.3563V25.1447C31.7909 25.4293 31.6935 25.6691 31.5063 25.864C31.3191 26.0588 31.0832 26.1563 30.7985 26.1563C30.514 26.1563 30.2723 26.0607 30.0735 25.8697C29.8748 25.6787 29.7832 25.4409 29.7985 25.1563C29.8062 24.9896 29.8165 24.8396 29.8293 24.7063C29.8421 24.5729 29.8485 24.4229 29.8485 24.2563C29.8485 23.264 29.5947 22.3377 29.087 21.4774C28.5793 20.6171 28.0165 19.7909 27.3986 18.9986ZM24.0024 37.8485C19.5998 37.8485 15.8582 37.0466 12.7774 35.4428C9.69663 33.8389 8.15625 31.8845 8.15625 29.5794C8.15625 28.6332 8.49983 27.6979 9.187 26.7736C9.8742 25.8492 10.8639 25.019 12.1562 24.2831V26.5485C11.4896 27.0152 10.9896 27.5095 10.6562 28.0313C10.3229 28.5531 10.1562 29.0562 10.1562 29.5408C10.1562 31.2204 11.5421 32.6915 14.3139 33.9543C17.0857 35.2171 20.3152 35.8485 24.0024 35.8485C27.6896 35.8485 30.919 35.2171 33.6908 33.9543C36.4627 32.6915 37.8485 31.2204 37.8485 29.5408C37.8485 29.0562 37.6819 28.5531 37.3485 28.0313C37.0152 27.5095 36.5152 27.0152 35.8485 26.5485V24.2831C37.1408 25.019 38.1306 25.8492 38.8178 26.7736C39.505 27.6979 39.8485 28.6332 39.8485 29.5794C39.8485 31.8845 38.3101 33.8389 35.2332 35.4428C32.1563 37.0466 28.4127 37.8485 24.0024 37.8485Z" fill="#E7A543"/>
</g>
</svg>
