<svg width="48" height="48" viewBox="0 0 48 48" fill="none" xmlns="http://www.w3.org/2000/svg">
<mask id="mask0_1443_588" style="mask-type:alpha" maskUnits="userSpaceOnUse" x="0" y="0" width="48" height="48">
<rect width="48" height="48" fill="#D9D9D9"/>
</mask>
<g mask="url(#mask0_1443_588)">
<path d="M11.1508 38.8997C10.6841 38.8997 10.3008 38.7497 10.0008 38.4497C9.70078 38.1497 9.55078 37.7663 9.55078 37.2997C9.55078 36.8663 9.70078 36.491 10.0008 36.1737C10.3008 35.8577 10.6841 35.6997 11.1508 35.6997H15.5508L10.4008 18.7497C9.53411 18.3497 8.84211 17.7497 8.32478 16.9497C7.80878 16.1497 7.55078 15.2497 7.55078 14.2497C7.55078 12.8497 8.03411 11.6663 9.00078 10.6997C9.96745 9.733 11.1508 9.24967 12.5508 9.24967C13.7508 9.24967 14.7928 9.625 15.6768 10.3757C16.5594 11.125 17.1508 12.083 17.4508 13.2497H24.7508V10.2497C24.7508 9.94967 24.8508 9.70767 25.0508 9.52367C25.2508 9.341 25.4841 9.24967 25.7508 9.24967C25.9841 9.24967 26.1841 9.31633 26.3508 9.44966C26.5174 9.583 26.6174 9.74966 26.6508 9.94966V10.4997L30.3008 7.14967C30.5674 6.883 30.8761 6.71633 31.2268 6.64967C31.5761 6.583 31.9008 6.633 32.2008 6.79967L39.8008 10.3497C40.0341 10.4497 40.2094 10.6163 40.3268 10.8497C40.4428 11.083 40.4508 11.3163 40.3508 11.5497C40.2174 11.8163 40.0428 11.983 39.8268 12.0497C39.6094 12.1163 39.3674 12.083 39.1008 11.9497L31.5508 8.44966L26.7508 12.8497V15.6497L31.5508 19.9497L39.1008 16.3997C39.3674 16.2997 39.6174 16.283 39.8508 16.3497C40.0841 16.4163 40.2508 16.5663 40.3508 16.7997C40.4841 17.033 40.4841 17.2663 40.3508 17.4997C40.2174 17.733 40.0341 17.8997 39.8008 17.9997L32.2008 21.5497C31.9008 21.7497 31.5761 21.8077 31.2268 21.7237C30.8761 21.641 30.5674 21.483 30.3008 21.2497L26.6508 17.9497V18.4997C26.6174 18.6997 26.5174 18.8743 26.3508 19.0237C26.1841 19.1743 25.9841 19.2497 25.7508 19.2497C25.4841 19.2497 25.2508 19.1497 25.0508 18.9497C24.8508 18.7497 24.7508 18.5163 24.7508 18.2497V15.2497H17.4508C17.3508 15.683 17.1841 16.1163 16.9508 16.5497C16.7174 16.983 16.4508 17.3497 16.1508 17.6497L25.8508 35.6997H31.9008C32.3674 35.6997 32.7594 35.8577 33.0768 36.1737C33.3928 36.491 33.5508 36.8663 33.5508 37.2997C33.5508 37.7663 33.3928 38.1497 33.0768 38.4497C32.7594 38.7497 32.3674 38.8997 31.9008 38.8997H11.1508ZM12.5508 17.2497C13.3508 17.2497 14.0508 16.9497 14.6508 16.3497C15.2508 15.7497 15.5508 15.0497 15.5508 14.2497C15.5508 13.4163 15.2508 12.7077 14.6508 12.1237C14.0508 11.541 13.3508 11.2497 12.5508 11.2497C11.7174 11.2497 11.0094 11.541 10.4268 12.1237C9.84278 12.7077 9.55078 13.4163 9.55078 14.2497C9.55078 15.0497 9.84278 15.7497 10.4268 16.3497C11.0094 16.9497 11.7174 17.2497 12.5508 17.2497ZM17.6508 35.6997H23.5508L14.5008 18.8497C14.3008 18.983 14.0174 19.091 13.6508 19.1737C13.2841 19.2577 12.9341 19.283 12.6008 19.2497L17.6508 35.6997Z" fill="#3B78AF"/>
</g>
</svg>
