<svg width="48" height="48" viewBox="0 0 48 48" fill="none" xmlns="http://www.w3.org/2000/svg">
<mask id="mask0_1443_1132" style="mask-type:alpha" maskUnits="userSpaceOnUse" x="0" y="0" width="48" height="48">
<rect width="48" height="48" fill="#D9D9D9"/>
</mask>
<g mask="url(#mask0_1443_1132)">
<path d="M35.1667 34.1471C35.4 34.1471 35.6092 34.0537 35.7943 33.8671C35.9787 33.6812 36.0708 33.4706 36.0708 33.2353C36.0708 33 35.9787 32.789 35.7943 32.6024C35.6092 32.4165 35.4 32.3235 35.1667 32.3235C34.9333 32.3235 34.7245 32.4165 34.5402 32.6024C34.3551 32.789 34.2625 33 34.2625 33.2353C34.2625 33.4706 34.3551 33.6812 34.5402 33.8671C34.7245 34.0537 34.9333 34.1471 35.1667 34.1471ZM26.4167 31.4706H31.0833C31.2583 31.4706 31.3995 31.4169 31.5068 31.3094C31.6134 31.2012 31.6667 31.0588 31.6667 30.8824C31.6667 30.7059 31.6134 30.5635 31.5068 30.4553C31.3995 30.3478 31.2583 30.2941 31.0833 30.2941H26.4167C26.2417 30.2941 26.1005 30.3478 25.9932 30.4553C25.8866 30.5635 25.8333 30.7059 25.8333 30.8824C25.8333 31.0588 25.8866 31.2012 25.9932 31.3094C26.1005 31.4169 26.2417 31.4706 26.4167 31.4706ZM24.0542 45C23.6653 45 23.2958 44.8678 22.9458 44.6035C22.5958 44.3384 22.3625 44.0098 22.2458 43.6176C21.7597 41.8726 21.3708 40.4263 21.0792 39.2788C20.7875 38.1322 20.5639 37.1667 20.4083 36.3824C20.2528 35.598 20.1458 34.9216 20.0875 34.3529C20.0292 33.7843 20 33.2157 20 32.6471C20 31.1765 20.5102 29.9263 21.5307 28.8965C22.5519 27.8675 23.7917 27.3529 25.25 27.3529H31.6667C32.1917 26.6471 32.8092 26.0784 33.5193 25.6471C34.2287 25.2157 34.9722 25 35.75 25C35.9056 25 36.0417 25.0588 36.1583 25.1765C36.275 25.2941 36.3333 25.4314 36.3333 25.5882C36.3333 25.6275 36.3287 25.6667 36.3193 25.7059C36.3092 25.7451 36.2944 25.7843 36.275 25.8235C36.1778 26.0784 36.0852 26.3675 35.9973 26.6906C35.9102 27.0145 35.8181 27.4608 35.7208 28.0294L39.1333 31.4706H40.0667C40.3389 31.4706 40.5625 31.5588 40.7375 31.7353C40.9125 31.9118 41 32.1373 41 32.4118V36.9412C41 37.1569 40.9417 37.3478 40.825 37.5141C40.7083 37.6812 40.5431 37.7941 40.3292 37.8529L37.9375 38.6471L36.45 43.6471C36.3139 44.0588 36.0806 44.3875 35.75 44.6329C35.4194 44.8776 35.05 45 34.6417 45H33.5625C33.0375 45 32.5903 44.8137 32.2208 44.4412C31.8514 44.0686 31.6667 43.6176 31.6667 43.0882V42.6471H27V43.0882C27 43.6176 26.8153 44.0686 26.4458 44.4412C26.0764 44.8137 25.6292 45 25.1042 45H24.0542ZM24.0833 43.8235H25.1042C25.3181 43.8235 25.4931 43.7549 25.6292 43.6176C25.7653 43.4804 25.8333 43.3039 25.8333 43.0882V41.4706H32.8333V43.0882C32.8333 43.3039 32.9014 43.4804 33.0375 43.6176C33.1736 43.7549 33.3486 43.8235 33.5625 43.8235H34.6417C34.7972 43.8235 34.938 43.7792 35.064 43.6906C35.1908 43.6027 35.2736 43.4706 35.3125 43.2941L36.975 37.7647L39.8333 36.7941V32.6471H38.6667L34.5833 28.5294C34.5833 28.1765 34.6125 27.7988 34.6708 27.3965C34.7292 26.9949 34.8167 26.6373 34.9333 26.3235C34.4083 26.4608 33.9222 26.74 33.475 27.1612C33.0278 27.5831 32.6875 28.0392 32.4542 28.5294H25.25C24.1222 28.5294 23.1597 28.9314 22.3625 29.7353C21.5653 30.5392 21.1667 31.5098 21.1667 32.6471C21.1667 33.4118 21.3564 34.7204 21.736 36.5729C22.1148 38.4263 22.6542 40.6569 23.3542 43.2647C23.3931 43.4216 23.4856 43.5541 23.6318 43.6624C23.7773 43.7698 23.9278 43.8235 24.0833 43.8235Z" fill="#21636F"/>
<path d="M11.34 21.2C9.64667 21.2 8.06 20.88 6.58 20.24C6.42 20.1733 6.28667 20.0667 6.18 19.92C6.07333 19.76 6.02 19.5933 6.02 19.42C6.02 19.1933 6.09333 19 6.24 18.84C6.4 18.6667 6.6 18.58 6.84 18.58C6.97333 18.58 7.1 18.6067 7.22 18.66C8.44667 19.2067 9.76 19.48 11.16 19.48C13.4933 19.48 14.66 18.7133 14.66 17.18C14.66 16.78 14.5067 16.4467 14.2 16.18C13.9067 15.9133 13.54 15.7067 13.1 15.56C12.66 15.4 12.0333 15.2133 11.22 15C10.14 14.72 9.26667 14.4533 8.6 14.2C7.93333 13.9333 7.36 13.54 6.88 13.02C6.4 12.5 6.16 11.8067 6.16 10.94C6.16 10.18 6.36 9.49333 6.76 8.88C7.16 8.25333 7.74667 7.76 8.52 7.4C9.30667 7.02667 10.2467 6.84 11.34 6.84C12.8067 6.84 14.1333 7.06 15.32 7.5C15.6933 7.63333 15.88 7.9 15.88 8.3C15.88 8.51333 15.8067 8.70667 15.66 8.88C15.5133 9.05333 15.32 9.14 15.08 9.14C15 9.14 14.8933 9.11333 14.76 9.06C13.72 8.7 12.6467 8.52 11.54 8.52C10.4867 8.52 9.62667 8.72 8.96 9.12C8.30667 9.52 7.98 10.08 7.98 10.8C7.98 11.28 8.13333 11.6733 8.44 11.98C8.76 12.2733 9.15333 12.5067 9.62 12.68C10.1 12.84 10.7467 13.0133 11.56 13.2C12.6133 13.4533 13.46 13.7067 14.1 13.96C14.7533 14.2133 15.3067 14.6067 15.76 15.14C16.2267 15.6733 16.46 16.3933 16.46 17.3C16.46 18.0467 16.2467 18.72 15.82 19.32C15.3933 19.9067 14.7933 20.3667 14.02 20.7C13.2467 21.0333 12.3533 21.2 11.34 21.2ZM20.1642 21.1C19.9109 21.1 19.6976 21.0133 19.5242 20.84C19.3509 20.6667 19.2642 20.4533 19.2642 20.2V7.96C19.2642 7.70667 19.3509 7.49333 19.5242 7.32C19.6976 7.13333 19.9109 7.04 20.1642 7.04H24.7242C25.9909 7.04 27.0242 7.25333 27.8242 7.68C28.6242 8.10667 29.1976 8.65333 29.5442 9.32C29.8909 9.98667 30.0642 10.7067 30.0642 11.48C30.0642 12.2533 29.8909 12.9733 29.5442 13.64C29.1976 14.3067 28.6242 14.8533 27.8242 15.28C27.0242 15.7067 25.9909 15.92 24.7242 15.92H21.0842V20.2C21.0842 20.4533 20.9909 20.6667 20.8042 20.84C20.6309 21.0133 20.4176 21.1 20.1642 21.1ZM24.5442 14.2C25.9042 14.2 26.8576 13.94 27.4042 13.42C27.9642 12.9 28.2442 12.2533 28.2442 11.48C28.2442 10.7067 27.9642 10.06 27.4042 9.54C26.8576 9.02 25.9042 8.76 24.5442 8.76H21.0842V14.2H24.5442Z" fill="#21636F"/>
</g>
</svg>
