<svg width="48" height="48" viewBox="0 0 48 48" fill="none" xmlns="http://www.w3.org/2000/svg">
<mask id="mask0_1443_129" style="mask-type:alpha" maskUnits="userSpaceOnUse" x="0" y="0" width="48" height="48">
<rect width="48" height="48" fill="#D9D9D9"/>
</mask>
<g mask="url(#mask0_1443_129)">
<path d="M35.1667 34.1471C35.4 34.1471 35.6092 34.0537 35.7943 33.8671C35.9787 33.6812 36.0708 33.4706 36.0708 33.2353C36.0708 33 35.9787 32.789 35.7943 32.6024C35.6092 32.4165 35.4 32.3235 35.1667 32.3235C34.9333 32.3235 34.7245 32.4165 34.5402 32.6024C34.3551 32.789 34.2625 33 34.2625 33.2353C34.2625 33.4706 34.3551 33.6812 34.5402 33.8671C34.7245 34.0537 34.9333 34.1471 35.1667 34.1471ZM26.4167 31.4706H31.0833C31.2583 31.4706 31.3995 31.4169 31.5068 31.3094C31.6134 31.2012 31.6667 31.0588 31.6667 30.8824C31.6667 30.7059 31.6134 30.5635 31.5068 30.4553C31.3995 30.3478 31.2583 30.2941 31.0833 30.2941H26.4167C26.2417 30.2941 26.1005 30.3478 25.9932 30.4553C25.8866 30.5635 25.8333 30.7059 25.8333 30.8824C25.8333 31.0588 25.8866 31.2012 25.9932 31.3094C26.1005 31.4169 26.2417 31.4706 26.4167 31.4706ZM24.0542 45C23.6653 45 23.2958 44.8678 22.9458 44.6035C22.5958 44.3384 22.3625 44.0098 22.2458 43.6176C21.7597 41.8726 21.3708 40.4263 21.0792 39.2788C20.7875 38.1322 20.5639 37.1667 20.4083 36.3824C20.2528 35.598 20.1458 34.9216 20.0875 34.3529C20.0292 33.7843 20 33.2157 20 32.6471C20 31.1765 20.5102 29.9263 21.5307 28.8965C22.5519 27.8675 23.7917 27.3529 25.25 27.3529H31.6667C32.1917 26.6471 32.8092 26.0784 33.5193 25.6471C34.2287 25.2157 34.9722 25 35.75 25C35.9056 25 36.0417 25.0588 36.1583 25.1765C36.275 25.2941 36.3333 25.4314 36.3333 25.5882C36.3333 25.6275 36.3287 25.6667 36.3193 25.7059C36.3092 25.7451 36.2944 25.7843 36.275 25.8235C36.1778 26.0784 36.0852 26.3675 35.9973 26.6906C35.9102 27.0145 35.8181 27.4608 35.7208 28.0294L39.1333 31.4706H40.0667C40.3389 31.4706 40.5625 31.5588 40.7375 31.7353C40.9125 31.9118 41 32.1373 41 32.4118V36.9412C41 37.1569 40.9417 37.3478 40.825 37.5141C40.7083 37.6812 40.5431 37.7941 40.3292 37.8529L37.9375 38.6471L36.45 43.6471C36.3139 44.0588 36.0806 44.3875 35.75 44.6329C35.4194 44.8776 35.05 45 34.6417 45H33.5625C33.0375 45 32.5903 44.8137 32.2208 44.4412C31.8514 44.0686 31.6667 43.6176 31.6667 43.0882V42.6471H27V43.0882C27 43.6176 26.8153 44.0686 26.4458 44.4412C26.0764 44.8137 25.6292 45 25.1042 45H24.0542ZM24.0833 43.8235H25.1042C25.3181 43.8235 25.4931 43.7549 25.6292 43.6176C25.7653 43.4804 25.8333 43.3039 25.8333 43.0882V41.4706H32.8333V43.0882C32.8333 43.3039 32.9014 43.4804 33.0375 43.6176C33.1736 43.7549 33.3486 43.8235 33.5625 43.8235H34.6417C34.7972 43.8235 34.938 43.7792 35.064 43.6906C35.1908 43.6027 35.2736 43.4706 35.3125 43.2941L36.975 37.7647L39.8333 36.7941V32.6471H38.6667L34.5833 28.5294C34.5833 28.1765 34.6125 27.7988 34.6708 27.3965C34.7292 26.9949 34.8167 26.6373 34.9333 26.3235C34.4083 26.4608 33.9222 26.74 33.475 27.1612C33.0278 27.5831 32.6875 28.0392 32.4542 28.5294H25.25C24.1222 28.5294 23.1597 28.9314 22.3625 29.7353C21.5653 30.5392 21.1667 31.5098 21.1667 32.6471C21.1667 33.4118 21.3564 34.7204 21.736 36.5729C22.1148 38.4263 22.6542 40.6569 23.3542 43.2647C23.3931 43.4216 23.4856 43.5541 23.6318 43.6624C23.7773 43.7698 23.9278 43.8235 24.0833 43.8235Z" fill="#EA8F7B"/>
<path d="M7.84 21C7.58667 21 7.37333 20.9133 7.2 20.74C7.02667 20.5667 6.94 20.3533 6.94 20.1V7.96C6.94 7.70667 7.02667 7.49333 7.2 7.32C7.37333 7.13333 7.58667 7.04 7.84 7.04H12.56C13.9867 7.04 15.0867 7.36667 15.86 8.02C16.6467 8.67333 17.04 9.55333 17.04 10.66C17.04 11.4333 16.8533 12.08 16.48 12.6C16.12 13.1067 15.6533 13.4867 15.08 13.74C15.88 13.9933 16.5333 14.4 17.04 14.96C17.56 15.52 17.82 16.2267 17.82 17.08C17.82 18.3067 17.4067 19.2667 16.58 19.96C15.7533 20.6533 14.4533 21 12.68 21H7.84ZM12.08 13.08C13.2667 13.08 14.1 12.88 14.58 12.48C15.06 12.08 15.3 11.52 15.3 10.8C15.3 10.1733 15.04 9.67333 14.52 9.3C14.0133 8.92667 13.3133 8.74 12.42 8.74H8.76V13.08H12.08ZM12.5 19.3C13.7933 19.3 14.7067 19.1 15.24 18.7C15.7867 18.3 16.06 17.7333 16.06 17C16.06 15.48 14.88 14.72 12.52 14.72H8.76V19.3H12.5Z" fill="#EA8F7B"/>
</g>
</svg>
