<svg width="32" height="28" viewBox="0 0 32 28" fill="none" xmlns="http://www.w3.org/2000/svg">
<path d="M5.70625 8.99855C4.99855 8.05752 4.41328 7.05238 3.95045 5.98315C3.48765 4.91392 3.25625 3.78828 3.25625 2.60625V1.887C3.25625 1.6665 3.27292 1.42677 3.30625 1.1678C3.34725 0.883168 3.45942 0.643417 3.64275 0.44855C3.82608 0.253684 4.04725 0.15625 4.30625 0.15625C4.59855 0.15625 4.84855 0.253684 5.05625 0.44855C5.26395 0.643417 5.34728 0.883168 5.30625 1.1678C5.27292 1.39343 5.24792 1.60817 5.23125 1.812C5.21458 2.01587 5.20625 2.23062 5.20625 2.45625C5.20625 3.54085 5.44983 4.5652 5.937 5.5293C6.4242 6.4934 6.99728 7.41777 7.65625 8.3024C8.33062 9.19213 8.90753 10.1447 9.387 11.1601C9.8665 12.1755 10.1062 13.2409 10.1062 14.3563V15.1447C10.0985 15.4293 10.0011 15.6691 9.81395 15.864C9.62675 16.0588 9.39085 16.1563 9.10625 16.1563C8.82162 16.1563 8.57995 16.0607 8.38125 15.8697C8.18252 15.6787 8.09085 15.4409 8.10625 15.1563C8.11392 14.9896 8.12417 14.8396 8.137 14.7063C8.14983 14.5729 8.15625 14.4229 8.15625 14.2563C8.15625 13.264 7.9024 12.3377 7.3947 11.4774C6.887 10.6171 6.32418 9.79085 5.70625 8.99855ZM12.5524 8.99855C11.8447 8.05752 11.2594 7.05238 10.7966 5.98315C10.3338 4.91392 10.1024 3.78828 10.1024 2.60625V1.887C10.1024 1.6665 10.1191 1.42677 10.1524 1.1678C10.1934 0.883168 10.3056 0.643417 10.4889 0.44855C10.6723 0.253684 10.8934 0.15625 11.1524 0.15625C11.4447 0.15625 11.6947 0.253684 11.9024 0.44855C12.1101 0.643417 12.1934 0.883168 12.1524 1.1678C12.1191 1.39343 12.0941 1.60817 12.0774 1.812C12.0607 2.01587 12.0524 2.23062 12.0524 2.45625C12.0524 3.54085 12.296 4.5652 12.7832 5.5293C13.2704 6.4934 13.8434 7.41777 14.5024 8.3024C15.1768 9.19213 15.7537 10.1447 16.2332 11.1601C16.7127 12.1755 16.9524 13.2409 16.9524 14.3563V15.1447C16.9447 15.4293 16.8473 15.6691 16.6601 15.864C16.4729 16.0588 16.237 16.1563 15.9524 16.1563C15.6678 16.1563 15.4261 16.0607 15.2274 15.8697C15.0287 15.6787 14.937 15.4409 14.9524 15.1563C14.9601 14.9896 14.9703 14.8396 14.9831 14.7063C14.996 14.5729 15.0024 14.4229 15.0024 14.2563C15.0024 13.264 14.7486 12.3377 14.2409 11.4774C13.7332 10.6171 13.1703 9.79085 12.5524 8.99855ZM19.3986 8.99855C18.6908 8.05752 18.1056 7.05238 17.6428 5.98315C17.18 4.91392 16.9486 3.78828 16.9486 2.60625V1.887C16.9486 1.6665 16.9652 1.42677 16.9986 1.1678C17.0396 0.883168 17.1518 0.643417 17.3351 0.44855C17.5184 0.253684 17.7396 0.15625 17.9985 0.15625C18.2909 0.15625 18.5409 0.253684 18.7485 0.44855C18.9562 0.643417 19.0396 0.883168 18.9985 1.1678C18.9652 1.39343 18.9402 1.60817 18.9235 1.812C18.9069 2.01587 18.8986 2.23062 18.8986 2.45625C18.8986 3.54085 19.1422 4.5652 19.6294 5.5293C20.1165 6.4934 20.6896 7.41777 21.3485 8.3024C22.0229 9.19213 22.5999 10.1447 23.0794 11.1601C23.5588 12.1755 23.7985 13.2409 23.7985 14.3563V15.1447C23.7909 15.4293 23.6935 15.6691 23.5063 15.864C23.3191 16.0588 23.0832 16.1563 22.7985 16.1563C22.514 16.1563 22.2723 16.0607 22.0735 15.8697C21.8748 15.6787 21.7832 15.4409 21.7985 15.1563C21.8062 14.9896 21.8165 14.8396 21.8293 14.7063C21.8421 14.5729 21.8485 14.4229 21.8485 14.2563C21.8485 13.264 21.5947 12.3377 21.087 11.4774C20.5793 10.6171 20.0165 9.79085 19.3986 8.99855ZM16.0024 27.8485C11.5998 27.8485 7.85817 27.0466 4.7774 25.4428C1.69663 23.8389 0.15625 21.8845 0.15625 19.5794C0.15625 18.6332 0.499834 17.6979 1.187 16.7736C1.8742 15.8492 2.86395 15.019 4.15625 14.2831V16.5485C3.48958 17.0152 2.98958 17.5095 2.65625 18.0313C2.32292 18.5531 2.15625 19.0562 2.15625 19.5408C2.15625 21.2204 3.54215 22.6915 6.31395 23.9543C9.08575 25.2171 12.3152 25.8485 16.0024 25.8485C19.6896 25.8485 22.919 25.2171 25.6908 23.9543C28.4627 22.6915 29.8485 21.2204 29.8485 19.5408C29.8485 19.0562 29.6819 18.5531 29.3485 18.0313C29.0152 17.5095 28.5152 17.0152 27.8485 16.5485V14.2831C29.1408 15.019 30.1306 15.8492 30.8178 16.7736C31.505 17.6979 31.8485 18.6332 31.8485 19.5794C31.8485 21.8845 30.3101 23.8389 27.2332 25.4428C24.1563 27.0466 20.4127 27.8485 16.0024 27.8485Z" fill="#E7A543"/>
</svg>
