<svg width="48" height="48" viewBox="0 0 48 48" fill="none" xmlns="http://www.w3.org/2000/svg">
<mask id="mask0_1401_2911" style="mask-type:alpha" maskUnits="userSpaceOnUse" x="0" y="0" width="48" height="48">
<rect width="48" height="48" fill="#D9D9D9"/>
</mask>
<g mask="url(#mask0_1401_2911)">
<path d="M9.99945 40C9.13279 40 8.52478 39.6167 8.17545 38.85C7.82478 38.0833 7.91612 37.3833 8.44945 36.75L19.9995 22.7V10H17.2495C16.9495 10 16.7075 9.9 16.5235 9.7C16.3408 9.5 16.2495 9.26667 16.2495 9C16.2495 8.7 16.3408 8.458 16.5235 8.274C16.7075 8.09133 16.9495 8 17.2495 8H30.7495C31.0495 8 31.2915 8.1 31.4755 8.3C31.6581 8.5 31.7495 8.73333 31.7495 9C31.7495 9.3 31.6581 9.54133 31.4755 9.724C31.2915 9.908 31.0495 10 30.7495 10H27.9995V22.7L39.5495 36.75C40.0828 37.3833 40.1748 38.0833 39.8255 38.85C39.4748 39.6167 38.8661 40 37.9995 40H9.99945ZM9.99945 38H37.9995L25.9995 23.4V10H21.9995V23.4L9.99945 38Z" fill="#CD5BE0"/>
</g>
</svg>
