<svg width="18" height="23" viewBox="0 0 18 23" fill="none" xmlns="http://www.w3.org/2000/svg">
<path d="M8.35714 13.3506V18.1753C8.35714 18.3515 8.44286 18.456 8.61429 18.4886C8.78571 18.522 8.90357 18.4727 8.96786 18.3405L12.0214 12.2931C12.1071 12.1169 12.0964 11.9406 11.9893 11.7644C11.8821 11.5881 11.7321 11.5 11.5393 11.5H9.64286V6.67529C9.64286 6.49904 9.55714 6.39418 9.38571 6.36069C9.21429 6.32808 9.09643 6.37787 9.03214 6.51006L5.97857 12.5575C5.89286 12.7337 5.90357 12.91 6.01071 13.0862C6.11786 13.2625 6.26786 13.3506 6.46071 13.3506H8.35714ZM9 23C6.62143 23 4.52657 22.1461 2.71543 20.4383C0.905143 18.7313 0 16.4128 0 13.4828C0 11.6542 0.685714 9.64943 2.05714 7.46839C3.42857 5.28736 5.49643 2.89703 8.26071 0.297414C8.36786 0.209291 8.48571 0.137471 8.61429 0.0819541C8.74286 0.0273181 8.87143 0 9 0C9.12857 0 9.25714 0.0273181 9.38571 0.0819541C9.51429 0.137471 9.63214 0.209291 9.73929 0.297414C12.5036 2.89703 14.5714 5.28736 15.9429 7.46839C17.3143 9.64943 18 11.6542 18 13.4828C18 16.4128 17.0944 18.7313 15.2833 20.4383C13.473 22.1461 11.3786 23 9 23ZM9 21.6782C11.1429 21.6782 12.9643 20.9124 14.4643 19.3808C15.9643 17.8501 16.7143 15.8841 16.7143 13.4828C16.7143 11.9186 16.0821 10.1284 14.8179 8.11213C13.5536 6.09676 11.6143 3.85536 9 1.38793C6.38571 3.85536 4.44643 6.09676 3.18214 8.11213C1.91786 10.1284 1.28571 11.9186 1.28571 13.4828C1.28571 15.8841 2.03571 17.8501 3.53571 19.3808C5.03571 20.9124 6.85714 21.6782 9 21.6782Z" fill="#D3B138"/>
</svg>
