<svg width="48" height="49" viewBox="0 0 48 49" fill="none" xmlns="http://www.w3.org/2000/svg">
<mask id="mask0_1443_2413" style="mask-type:alpha" maskUnits="userSpaceOnUse" x="0" y="0" width="48" height="49">
<rect y="0.683594" width="48" height="48" fill="#D9D9D9"/>
</mask>
<g mask="url(#mask0_1443_2413)">
<path d="M8.84 19C8.58667 19 8.37333 18.9133 8.2 18.74C8.02667 18.5667 7.94 18.3533 7.94 18.1V5.96C7.94 5.70667 8.02667 5.49333 8.2 5.32C8.37333 5.13333 8.58667 5.04 8.84 5.04H13.56C14.9867 5.04 16.0867 5.36667 16.86 6.02C17.6467 6.67333 18.04 7.55333 18.04 8.66C18.04 9.43333 17.8533 10.08 17.48 10.6C17.12 11.1067 16.6533 11.4867 16.08 11.74C16.88 11.9933 17.5333 12.4 18.04 12.96C18.56 13.52 18.82 14.2267 18.82 15.08C18.82 16.3067 18.4067 17.2667 17.58 17.96C16.7533 18.6533 15.4533 19 13.68 19H8.84ZM13.08 11.08C14.2667 11.08 15.1 10.88 15.58 10.48C16.06 10.08 16.3 9.52 16.3 8.8C16.3 8.17333 16.04 7.67333 15.52 7.3C15.0133 6.92667 14.3133 6.74 13.42 6.74H9.76V11.08H13.08ZM13.5 17.3C14.7933 17.3 15.7067 17.1 16.24 16.7C16.7867 16.3 17.06 15.7333 17.06 15C17.06 13.48 15.88 12.72 13.52 12.72H9.76V17.3H13.5Z" fill="#7CB1FF"/>
<path d="M28.3571 33.3506V38.1753C28.3571 38.3515 28.4429 38.456 28.6143 38.4886C28.7857 38.522 28.9036 38.4727 28.9679 38.3405L32.0214 32.2931C32.1071 32.1169 32.0964 31.9406 31.9893 31.7644C31.8821 31.5881 31.7321 31.5 31.5393 31.5H29.6429V26.6753C29.6429 26.499 29.5571 26.3942 29.3857 26.3607C29.2143 26.3281 29.0964 26.3779 29.0321 26.5101L25.9786 32.5575C25.8929 32.7337 25.9036 32.91 26.0107 33.0862C26.1179 33.2625 26.2679 33.3506 26.4607 33.3506H28.3571ZM29 43C26.6214 43 24.5266 42.1461 22.7154 40.4383C20.9051 38.7313 20 36.4128 20 33.4828C20 31.6542 20.6857 29.6494 22.0571 27.4684C23.4286 25.2874 25.4964 22.897 28.2607 20.2974C28.3679 20.2093 28.4857 20.1375 28.6143 20.082C28.7429 20.0273 28.8714 20 29 20C29.1286 20 29.2571 20.0273 29.3857 20.082C29.5143 20.1375 29.6321 20.2093 29.7393 20.2974C32.5036 22.897 34.5714 25.2874 35.9429 27.4684C37.3143 29.6494 38 31.6542 38 33.4828C38 36.4128 37.0944 38.7313 35.2833 40.4383C33.473 42.1461 31.3786 43 29 43ZM29 41.6782C31.1429 41.6782 32.9643 40.9124 34.4643 39.3808C35.9643 37.8501 36.7143 35.8841 36.7143 33.4828C36.7143 31.9186 36.0821 30.1284 34.8179 28.1121C33.5536 26.0968 31.6143 23.8554 29 21.3879C26.3857 23.8554 24.4464 26.0968 23.1821 28.1121C21.9179 30.1284 21.2857 31.9186 21.2857 33.4828C21.2857 35.8841 22.0357 37.8501 23.5357 39.3808C25.0357 40.9124 26.8571 41.6782 29 41.6782Z" fill="#7CB1FF"/>
</g>
</svg>
