<svg width="48" height="49" viewBox="0 0 48 49" fill="none" xmlns="http://www.w3.org/2000/svg">
<mask id="mask0_1443_2373" style="mask-type:alpha" maskUnits="userSpaceOnUse" x="0" y="0" width="48" height="49">
<rect y="0.683594" width="48" height="48" fill="#D9D9D9"/>
</mask>
<g mask="url(#mask0_1443_2373)">
<path d="M8.34 19.2C6.64667 19.2 5.06 18.88 3.58 18.24C3.42 18.1733 3.28667 18.0667 3.18 17.92C3.07333 17.76 3.02 17.5933 3.02 17.42C3.02 17.1933 3.09333 17 3.24 16.84C3.4 16.6667 3.6 16.58 3.84 16.58C3.97333 16.58 4.1 16.6067 4.22 16.66C5.44667 17.2067 6.76 17.48 8.16 17.48C10.4933 17.48 11.66 16.7133 11.66 15.18C11.66 14.78 11.5067 14.4467 11.2 14.18C10.9067 13.9133 10.54 13.7067 10.1 13.56C9.66 13.4 9.03333 13.2133 8.22 13C7.14 12.72 6.26667 12.4533 5.6 12.2C4.93333 11.9333 4.36 11.54 3.88 11.02C3.4 10.5 3.16 9.80667 3.16 8.94C3.16 8.18 3.36 7.49333 3.76 6.88C4.16 6.25333 4.74667 5.76 5.52 5.4C6.30667 5.02667 7.24667 4.84 8.34 4.84C9.80667 4.84 11.1333 5.06 12.32 5.5C12.6933 5.63333 12.88 5.9 12.88 6.3C12.88 6.51333 12.8067 6.70667 12.66 6.88C12.5133 7.05333 12.32 7.14 12.08 7.14C12 7.14 11.8933 7.11333 11.76 7.06C10.72 6.7 9.64667 6.52 8.54 6.52C7.48667 6.52 6.62667 6.72 5.96 7.12C5.30667 7.52 4.98 8.08 4.98 8.8C4.98 9.28 5.13333 9.67333 5.44 9.98C5.76 10.2733 6.15333 10.5067 6.62 10.68C7.1 10.84 7.74667 11.0133 8.56 11.2C9.61333 11.4533 10.46 11.7067 11.1 11.96C11.7533 12.2133 12.3067 12.6067 12.76 13.14C13.2267 13.6733 13.46 14.3933 13.46 15.3C13.46 16.0467 13.2467 16.72 12.82 17.32C12.3933 17.9067 11.7933 18.3667 11.02 18.7C10.2467 19.0333 9.35333 19.2 8.34 19.2ZM17.1642 19.1C16.9109 19.1 16.6976 19.0133 16.5242 18.84C16.3509 18.6667 16.2642 18.4533 16.2642 18.2V5.96C16.2642 5.70667 16.3509 5.49333 16.5242 5.32C16.6976 5.13333 16.9109 5.04 17.1642 5.04H21.7242C22.9909 5.04 24.0242 5.25333 24.8242 5.68C25.6242 6.10667 26.1976 6.65333 26.5442 7.32C26.8909 7.98667 27.0642 8.70667 27.0642 9.48C27.0642 10.2533 26.8909 10.9733 26.5442 11.64C26.1976 12.3067 25.6242 12.8533 24.8242 13.28C24.0242 13.7067 22.9909 13.92 21.7242 13.92H18.0842V18.2C18.0842 18.4533 17.9909 18.6667 17.8042 18.84C17.6309 19.0133 17.4176 19.1 17.1642 19.1ZM21.5442 12.2C22.9042 12.2 23.8576 11.94 24.4042 11.42C24.9642 10.9 25.2442 10.2533 25.2442 9.48C25.2442 8.70667 24.9642 8.06 24.4042 7.54C23.8576 7.02 22.9042 6.76 21.5442 6.76H18.0842V12.2H21.5442Z" fill="#7D3C9C"/>
<path d="M28.3571 33.3506V38.1753C28.3571 38.3515 28.4429 38.456 28.6143 38.4886C28.7857 38.522 28.9036 38.4727 28.9679 38.3405L32.0214 32.2931C32.1071 32.1169 32.0964 31.9406 31.9893 31.7644C31.8821 31.5881 31.7321 31.5 31.5393 31.5H29.6429V26.6753C29.6429 26.499 29.5571 26.3942 29.3857 26.3607C29.2143 26.3281 29.0964 26.3779 29.0321 26.5101L25.9786 32.5575C25.8929 32.7337 25.9036 32.91 26.0107 33.0862C26.1179 33.2625 26.2679 33.3506 26.4607 33.3506H28.3571ZM29 43C26.6214 43 24.5266 42.1461 22.7154 40.4383C20.9051 38.7313 20 36.4128 20 33.4828C20 31.6542 20.6857 29.6494 22.0571 27.4684C23.4286 25.2874 25.4964 22.897 28.2607 20.2974C28.3679 20.2093 28.4857 20.1375 28.6143 20.082C28.7429 20.0273 28.8714 20 29 20C29.1286 20 29.2571 20.0273 29.3857 20.082C29.5143 20.1375 29.6321 20.2093 29.7393 20.2974C32.5036 22.897 34.5714 25.2874 35.9429 27.4684C37.3143 29.6494 38 31.6542 38 33.4828C38 36.4128 37.0944 38.7313 35.2833 40.4383C33.473 42.1461 31.3786 43 29 43ZM29 41.6782C31.1429 41.6782 32.9643 40.9124 34.4643 39.3808C35.9643 37.8501 36.7143 35.8841 36.7143 33.4828C36.7143 31.9186 36.0821 30.1284 34.8179 28.1121C33.5536 26.0968 31.6143 23.8554 29 21.3879C26.3857 23.8554 24.4464 26.0968 23.1821 28.1121C21.9179 30.1284 21.2857 31.9186 21.2857 33.4828C21.2857 35.8841 22.0357 37.8501 23.5357 39.3808C25.0357 40.9124 26.8571 41.6782 29 41.6782Z" fill="#7D3C9C"/>
</g>
</svg>
