<svg width="48" height="49" viewBox="0 0 48 49" fill="none" xmlns="http://www.w3.org/2000/svg">
<mask id="mask0_1443_1342" style="mask-type:alpha" maskUnits="userSpaceOnUse" x="0" y="0" width="48" height="49">
<rect y="0.683594" width="48" height="48" fill="#D9D9D9"/>
</mask>
<g mask="url(#mask0_1443_1342)">
<path d="M7.34 19.2C5.64667 19.2 4.06 18.88 2.58 18.24C2.42 18.1733 2.28667 18.0667 2.18 17.92C2.07333 17.76 2.02 17.5933 2.02 17.42C2.02 17.1933 2.09333 17 2.24 16.84C2.4 16.6667 2.6 16.58 2.84 16.58C2.97333 16.58 3.1 16.6067 3.22 16.66C4.44667 17.2067 5.76 17.48 7.16 17.48C9.49333 17.48 10.66 16.7133 10.66 15.18C10.66 14.78 10.5067 14.4467 10.2 14.18C9.90667 13.9133 9.54 13.7067 9.1 13.56C8.66 13.4 8.03333 13.2133 7.22 13C6.14 12.72 5.26667 12.4533 4.6 12.2C3.93333 11.9333 3.36 11.54 2.88 11.02C2.4 10.5 2.16 9.80667 2.16 8.94C2.16 8.18 2.36 7.49333 2.76 6.88C3.16 6.25333 3.74667 5.76 4.52 5.4C5.30667 5.02667 6.24667 4.84 7.34 4.84C8.80667 4.84 10.1333 5.06 11.32 5.5C11.6933 5.63333 11.88 5.9 11.88 6.3C11.88 6.51333 11.8067 6.70667 11.66 6.88C11.5133 7.05333 11.32 7.14 11.08 7.14C11 7.14 10.8933 7.11333 10.76 7.06C9.72 6.7 8.64667 6.52 7.54 6.52C6.48667 6.52 5.62667 6.72 4.96 7.12C4.30667 7.52 3.98 8.08 3.98 8.8C3.98 9.28 4.13333 9.67333 4.44 9.98C4.76 10.2733 5.15333 10.5067 5.62 10.68C6.1 10.84 6.74667 11.0133 7.56 11.2C8.61333 11.4533 9.46 11.7067 10.1 11.96C10.7533 12.2133 11.3067 12.6067 11.76 13.14C12.2267 13.6733 12.46 14.3933 12.46 15.3C12.46 16.0467 12.2467 16.72 11.82 17.32C11.3933 17.9067 10.7933 18.3667 10.02 18.7C9.24667 19.0333 8.35333 19.2 7.34 19.2ZM16.1642 19C15.9109 19 15.6976 18.9133 15.5242 18.74C15.3509 18.5667 15.2642 18.3533 15.2642 18.1V5.96C15.2642 5.70667 15.3509 5.49333 15.5242 5.32C15.6976 5.13333 15.9109 5.04 16.1642 5.04H20.8842C22.3109 5.04 23.4109 5.36667 24.1842 6.02C24.9709 6.67333 25.3642 7.55333 25.3642 8.66C25.3642 9.43333 25.1776 10.08 24.8042 10.6C24.4442 11.1067 23.9776 11.4867 23.4042 11.74C24.2042 11.9933 24.8576 12.4 25.3642 12.96C25.8842 13.52 26.1442 14.2267 26.1442 15.08C26.1442 16.3067 25.7309 17.2667 24.9042 17.96C24.0776 18.6533 22.7776 19 21.0042 19H16.1642ZM20.4042 11.08C21.5909 11.08 22.4242 10.88 22.9042 10.48C23.3842 10.08 23.6242 9.52 23.6242 8.8C23.6242 8.17333 23.3642 7.67333 22.8442 7.3C22.3376 6.92667 21.6376 6.74 20.7442 6.74H17.0842V11.08H20.4042ZM20.8242 17.3C22.1176 17.3 23.0309 17.1 23.5642 16.7C24.1109 16.3 24.3842 15.7333 24.3842 15C24.3842 13.48 23.2042 12.72 20.8442 12.72H17.0842V17.3H20.8242Z" fill="#D3B138"/>
<path d="M28.3571 33.3506V38.1753C28.3571 38.3515 28.4429 38.456 28.6143 38.4886C28.7857 38.522 28.9036 38.4727 28.9679 38.3405L32.0214 32.2931C32.1071 32.1169 32.0964 31.9406 31.9893 31.7644C31.8821 31.5881 31.7321 31.5 31.5393 31.5H29.6429V26.6753C29.6429 26.499 29.5571 26.3942 29.3857 26.3607C29.2143 26.3281 29.0964 26.3779 29.0321 26.5101L25.9786 32.5575C25.8929 32.7337 25.9036 32.91 26.0107 33.0862C26.1179 33.2625 26.2679 33.3506 26.4607 33.3506H28.3571ZM29 43C26.6214 43 24.5266 42.1461 22.7154 40.4383C20.9051 38.7313 20 36.4128 20 33.4828C20 31.6542 20.6857 29.6494 22.0571 27.4684C23.4286 25.2874 25.4964 22.897 28.2607 20.2974C28.3679 20.2093 28.4857 20.1375 28.6143 20.082C28.7429 20.0273 28.8714 20 29 20C29.1286 20 29.2571 20.0273 29.3857 20.082C29.5143 20.1375 29.6321 20.2093 29.7393 20.2974C32.5036 22.897 34.5714 25.2874 35.9429 27.4684C37.3143 29.6494 38 31.6542 38 33.4828C38 36.4128 37.0944 38.7313 35.2833 40.4383C33.473 42.1461 31.3786 43 29 43ZM29 41.6782C31.1429 41.6782 32.9643 40.9124 34.4643 39.3808C35.9643 37.8501 36.7143 35.8841 36.7143 33.4828C36.7143 31.9186 36.0821 30.1284 34.8179 28.1121C33.5536 26.0968 31.6143 23.8554 29 21.3879C26.3857 23.8554 24.4464 26.0968 23.1821 28.1121C21.9179 30.1284 21.2857 31.9186 21.2857 33.4828C21.2857 35.8841 22.0357 37.8501 23.5357 39.3808C25.0357 40.9124 26.8571 41.6782 29 41.6782Z" fill="#D3B138"/>
</g>
</svg>
