<svg width="240" height="112" viewBox="0 0 240 112" fill="none" xmlns="http://www.w3.org/2000/svg">
<mask id="path-1-inside-1_2063_14629" fill="white">
<rect x="42.1084" y="23.5322" width="44.4737" height="82.1054" rx="1"/>
</mask>
<rect x="42.1084" y="23.5322" width="44.4737" height="82.1054" rx="1" stroke="white" stroke-width="4" mask="url(#path-1-inside-1_2063_14629)"/>
<line x1="51.6533" y1="37.9238" x2="77.0218" y2="37.9238" stroke="white" stroke-width="2" stroke-linecap="round"/>
<line x1="51.6533" y1="51.6084" x2="77.0218" y2="51.6084" stroke="white" stroke-width="2" stroke-linecap="round"/>
<line x1="51.6533" y1="65.2891" x2="77.0218" y2="65.2891" stroke="white" stroke-width="2" stroke-linecap="round"/>
<line x1="51.6533" y1="78.9785" x2="77.0218" y2="78.9785" stroke="white" stroke-width="2" stroke-linecap="round"/>
<path d="M55.793 103.926V87.8203C55.793 87.268 56.2407 86.8203 56.793 86.8203H71.8983C72.4505 86.8203 72.8983 87.268 72.8983 87.8203V103.926" stroke="white" stroke-width="2" stroke-linecap="round"/>
<path d="M64.3467 86.8203L64.3467 103.926" stroke="white" stroke-width="2" stroke-linecap="round"/>
<path d="M50.6533 24.1185V18.2764C50.6533 17.7241 51.101 17.2764 51.6533 17.2764H77.0218C77.5741 17.2764 78.0218 17.7241 78.0218 18.2764V24.1185" stroke="white" stroke-width="2" stroke-linecap="round"/>
<line x1="65.0449" y1="16.2627" x2="65.0449" y2="7.99952" stroke="white" stroke-width="2" stroke-linecap="round"/>
<rect x="26" y="74.1357" width="11.6842" height="20.2369" rx="5" stroke="white" stroke-width="2"/>
<line x1="32.251" y1="94.6582" x2="32.251" y2="104.632" stroke="white" stroke-width="2" stroke-linecap="round"/>
<line x1="85.8691" y1="48.1895" x2="123.211" y2="48.1895" stroke="white" stroke-width="2" stroke-linecap="round"/>
<circle cx="112.234" cy="97.0775" r="7.84211" stroke="white" stroke-width="2"/>
<circle cx="166.973" cy="97.0775" r="7.84211" stroke="white" stroke-width="2"/>
<path d="M103.689 97.0831H97.8467C97.2944 97.0831 96.8467 96.6354 96.8467 96.0831V74.1357C96.8467 73.5835 97.2944 73.1357 97.8467 73.1357H127.491C128.044 73.1357 128.491 73.5835 128.491 74.1357V96.0831C128.491 96.6354 128.044 97.0831 127.491 97.0831H120.794" stroke="white" stroke-width="2" stroke-linecap="round"/>
<path d="M158.424 97.0832H129.489C128.937 97.0832 128.489 96.6355 128.489 96.0832V41.6357C128.489 41.0835 128.937 40.6357 129.489 40.6357H193.345C193.897 40.6357 194.345 41.0835 194.345 41.6357V96.0832C194.345 96.6355 193.897 97.0832 193.345 97.0832H175.529" stroke="white" stroke-width="2" stroke-linecap="round"/>
<path d="M102.827 73.1323L109.399 59.167C109.564 58.8165 109.917 58.5928 110.304 58.5928H127.63" stroke="white" stroke-width="2" stroke-linecap="round"/>
<line x1="178.239" y1="53.3203" x2="212.16" y2="53.3203" stroke="white" stroke-width="2" stroke-linecap="round"/>
<line x1="166.262" y1="65.2891" x2="200.183" y2="65.2891" stroke="white" stroke-width="2" stroke-linecap="round"/>
<line x1="176.531" y1="75.5547" x2="210.452" y2="75.5547" stroke="white" stroke-width="2" stroke-linecap="round"/>
<circle cx="112.589" cy="96.6701" r="2.24138" fill="white"/>
<circle cx="166.382" cy="96.6701" r="2.24138" fill="white"/>
</svg>
