<svg width="152" height="152" viewBox="0 0 152 152" fill="none" xmlns="http://www.w3.org/2000/svg">
<path d="M111.866 14L101.842 35.5904C101.781 35.7223 101.749 35.866 101.749 36.0115V65.242C101.749 65.3229 101.739 65.4034 101.72 65.4819L84.9344 133.387C84.7786 134.017 85.2557 134.627 85.9052 134.627H111.866" stroke="white" stroke-width="2" stroke-linecap="round"/>
<path d="M112.635 14L122.659 35.5904C122.72 35.7223 122.752 35.866 122.752 36.0115V65.242C122.752 65.3229 122.762 65.4034 122.781 65.4819L139.567 133.387C139.722 134.017 139.245 134.627 138.596 134.627H112.635" stroke="white" stroke-width="2" stroke-linecap="round"/>
<path d="M75.2939 33.4639H112.649" stroke="white" stroke-width="2" stroke-linecap="round"/>
<path d="M76.0762 34.2412L101.526 48.8944C101.678 48.9817 101.85 49.0277 102.025 49.0277H112.653" stroke="white" stroke-width="2" stroke-linecap="round"/>
<path d="M149.996 33.4639H112.641" stroke="white" stroke-width="2" stroke-linecap="round"/>
<path d="M149.214 34.2412L123.764 48.8944C123.612 48.9817 123.44 49.0277 123.265 49.0277H112.637" stroke="white" stroke-width="2" stroke-linecap="round"/>
<path d="M149.991 66.1387H112.636" stroke="white" stroke-width="2" stroke-linecap="round"/>
<path d="M149.209 66.916L126.89 81.539C126.727 81.6457 126.536 81.7025 126.342 81.7025H112.632" stroke="white" stroke-width="2" stroke-linecap="round"/>
<path d="M75.2812 66.1387H112.637" stroke="white" stroke-width="2" stroke-linecap="round"/>
<path d="M76.0635 66.916L98.3828 81.539C98.5456 81.6457 98.7361 81.7025 98.9308 81.7025H112.641" stroke="white" stroke-width="2" stroke-linecap="round"/>
<path d="M75.2852 98.8301H149.996" stroke="white" stroke-width="2" stroke-linecap="round"/>
<path d="M90.8516 112.837L134.433 112.837" stroke="white" stroke-width="2" stroke-linecap="round"/>
<path d="M76.0674 99.8291L90.8539 112.837" stroke="white" stroke-width="2" stroke-linecap="round"/>
<path d="M149.215 99.8291L134.428 112.837" stroke="white" stroke-width="2" stroke-linecap="round"/>
<path d="M149.993 33.4531V42.792" stroke="white" stroke-width="2" stroke-linecap="round"/>
<path d="M75.2812 33.4531V42.792" stroke="white" stroke-width="2" stroke-linecap="round"/>
<path d="M75.2812 66.1445V75.4834" stroke="white" stroke-width="2" stroke-linecap="round"/>
<path d="M149.993 66.1445V75.4834" stroke="white" stroke-width="2" stroke-linecap="round"/>
<path d="M149.993 98.8271V108.166" stroke="white" stroke-width="2" stroke-linecap="round"/>
<path d="M75.2812 98.8271V108.166" stroke="white" stroke-width="2" stroke-linecap="round"/>
<line x1="121.793" y1="50.3984" x2="102.475" y2="64.7891" stroke="white" stroke-width="2" stroke-linecap="round"/>
<line x1="103.591" y1="50.3985" x2="121.825" y2="64.5956" stroke="white" stroke-width="2" stroke-linecap="round"/>
<line x1="125.514" y1="82.5974" x2="94.6341" y2="97.3023" stroke="white" stroke-width="2" stroke-linecap="round"/>
<line x1="97.7606" y1="82.3721" x2="130.214" y2="98.5989" stroke="white" stroke-width="2" stroke-linecap="round"/>
<path d="M112.19 14.5557C90.5088 49.5791 38.2515 70.7044 22.6855 64.5892" stroke="white" stroke-linecap="round"/>
<path d="M22.347 64.1387L16.5384 76.6496C16.4771 76.7815 16.4454 76.9253 16.4454 77.0707V93.9791C16.4454 94.06 16.4356 94.1405 16.4162 94.2191L6.76452 133.264C6.60866 133.895 7.08582 134.504 7.7353 134.504H22.347" stroke="white" stroke-width="2" stroke-linecap="round"/>
<path d="M22.8121 64.1387L28.6208 76.6496C28.682 76.7815 28.7138 76.9253 28.7138 77.0707V93.9791C28.7138 94.06 28.7236 94.1405 28.743 94.2191L38.3947 133.264C38.5505 133.895 38.0734 134.504 37.4239 134.504H22.8121" stroke="white" stroke-width="2" stroke-linecap="round"/>
<path d="M1.00293 75.4893H22.7936" stroke="white" stroke-width="2" stroke-linecap="round"/>
<path d="M1.44629 75.9453L16.1957 84.4374C16.3475 84.5248 16.5196 84.5708 16.6947 84.5708H22.783" stroke="white" stroke-width="2" stroke-linecap="round"/>
<path d="M44.584 75.4893H22.7933" stroke="white" stroke-width="2" stroke-linecap="round"/>
<path d="M44.1406 75.9453L29.3912 84.4374C29.2394 84.5248 29.0674 84.5708 28.8922 84.5708H22.8039" stroke="white" stroke-width="2" stroke-linecap="round"/>
<path d="M44.5908 94.5557H22.8001" stroke="white" stroke-width="2" stroke-linecap="round"/>
<path d="M44.1475 95.0117L31.2319 103.474C31.069 103.58 30.8785 103.637 30.6838 103.637H22.8108" stroke="white" stroke-width="2" stroke-linecap="round"/>
<path d="M1 94.5557H22.7907" stroke="white" stroke-width="2" stroke-linecap="round"/>
<path d="M1.44336 95.0117L14.3589 103.474C14.5218 103.58 14.7123 103.637 14.907 103.637H22.7801" stroke="white" stroke-width="2" stroke-linecap="round"/>
<path d="M1.00293 113.629H44.5843" stroke="white" stroke-width="2" stroke-linecap="round"/>
<path d="M10.0889 121.799L35.5113 121.799" stroke="white" stroke-width="2" stroke-linecap="round"/>
<path d="M1.44629 114.211L10.0718 121.799" stroke="white" stroke-width="2" stroke-linecap="round"/>
<path d="M44.1309 114.211L35.5054 121.799" stroke="white" stroke-width="2" stroke-linecap="round"/>
<path d="M44.5996 75.4922V80.9399" stroke="white" stroke-width="2" stroke-linecap="round"/>
<path d="M1.01172 75.4922L1.01172 80.9399" stroke="white" stroke-width="2" stroke-linecap="round"/>
<path d="M1.01172 94.5586L1.01172 100.006" stroke="white" stroke-width="2" stroke-linecap="round"/>
<path d="M44.5996 94.5586V100.006" stroke="white" stroke-width="2" stroke-linecap="round"/>
<path d="M44.5996 113.625V119.073" stroke="white" stroke-width="2" stroke-linecap="round"/>
<path d="M1.01172 113.625L1.01172 119.073" stroke="white" stroke-width="2" stroke-linecap="round"/>
<line x1="27.1486" y1="85.9703" x2="17.8533" y2="92.9418" stroke="white" stroke-width="2" stroke-linecap="round"/>
<line x1="17.8732" y1="85.3505" x2="27.2321" y2="93.1496" stroke="white" stroke-width="2" stroke-linecap="round"/>
<line x1="29.5925" y1="104.97" x2="12.3314" y2="113.19" stroke="white" stroke-width="2" stroke-linecap="round"/>
<line x1="14.1649" y1="104.099" x2="32.3508" y2="113.192" stroke="white" stroke-width="2" stroke-linecap="round"/>
</svg>
