<svg width="152" height="152" viewBox="0 0 152 152" fill="none" xmlns="http://www.w3.org/2000/svg">
<path fill-rule="evenodd" clip-rule="evenodd" d="M102.008 13.514C102.749 14.0565 103.41 14.6653 103.996 15.3191C106.974 13.9552 109.653 13.5151 112.015 13.7807C114.571 14.0681 116.679 15.1738 118.327 16.6951C121.582 19.6999 123.079 24.3571 122.825 27.7778C122.785 28.3286 122.305 28.742 121.754 28.7012C121.203 28.6604 120.79 28.1808 120.831 27.6301C121.042 24.7824 119.752 20.7324 116.971 18.1647C115.601 16.8998 113.879 16.0029 111.791 15.7682C109.956 15.5617 107.779 15.8612 105.247 16.9516C106.994 19.6263 107.684 22.697 107.423 25.0314C107.362 25.5803 106.867 25.9755 106.318 25.9142C105.769 25.8529 105.374 25.3582 105.435 24.8093C105.669 22.7229 104.924 19.7352 103.034 17.289C102.965 17.224 102.904 17.1481 102.855 17.0623C102.279 16.3547 101.604 15.6975 100.826 15.1273C97.497 12.6882 92.0493 11.6994 83.9233 15.7341C85.3105 16.9608 86.4004 18.318 87.1514 19.507C87.4463 19.974 87.3069 20.5916 86.8399 20.8865C86.373 21.1814 85.7553 21.042 85.4604 20.575C84.1479 18.4969 81.7017 15.9055 78.5033 14.7228C75.385 13.5696 71.4133 13.7004 66.8137 17.2774L66.8134 17.2777L66.8126 17.2785C64.6933 19.9167 63.9671 22.204 64.0175 24.1063C64.0678 26.0098 64.8994 27.6721 66.1695 29.0529C67.4458 30.4404 69.1387 31.511 70.8089 32.1913C72.5013 32.8806 74.0477 33.1204 75.0208 32.9814C75.5675 32.9033 76.074 33.2832 76.1521 33.8299C76.2302 34.3766 75.8503 34.8832 75.3036 34.9613C74.8 35.0332 74.2408 35.0367 73.6476 34.9791C74.4106 37.6074 75.8201 39.497 77.6821 40.6844C79.6313 41.9274 82.1779 42.465 85.2099 42.1571C84.6889 40.9168 84.4637 39.6707 84.7012 38.6279C84.8238 38.0894 85.3597 37.7522 85.8982 37.8749C86.4368 37.9975 86.7739 38.5334 86.6513 39.0719C86.5101 39.6921 86.6905 40.7956 87.4245 42.1536C88.137 43.472 89.3008 44.8922 90.8776 46.0959C94.0075 48.4852 98.7545 50.0167 104.819 48.1849C105.348 48.0252 105.906 48.3243 106.066 48.853C106.225 49.3817 105.926 49.9398 105.398 50.0995C98.6838 52.1273 93.2753 50.4424 89.664 47.6856C88.2259 46.5877 87.071 45.319 86.2305 44.0467C82.5262 44.5757 79.2122 44.0321 76.6068 42.3707C74.0271 40.7257 72.2569 38.0576 71.4722 34.5415C71.0016 34.4026 70.5262 34.2357 70.0545 34.0436C68.1651 33.274 66.2093 32.0503 64.6975 30.4069C63.1797 28.7568 62.0841 26.6517 62.0182 24.1592C61.9522 21.6662 62.9202 18.9297 65.2551 16.0239C65.3496 15.9062 65.4626 15.7945 65.5832 15.7007C70.6894 11.7286 75.3825 11.4363 79.197 12.8469C80.2812 13.2479 81.2828 13.7818 82.1942 14.3945C82.2459 14.3526 82.3025 14.3153 82.3638 14.2834C91.2967 9.6388 97.8007 10.4313 102.008 13.514ZM116.864 35.2775V41.9402C116.908 41.9661 116.95 41.9951 116.989 42.027H127.928C128.005 41.9642 128.092 41.9124 128.187 41.8743V35.2775H116.864ZM114.864 43.4212C114.864 43.6773 114.961 43.911 115.119 44.0879L107.495 87.6579C107.475 87.7718 107.475 87.8847 107.493 87.9928H104.719V73.28C104.719 73.0728 104.687 72.8729 104.629 72.685C104.684 72.5608 104.715 72.4233 104.715 72.2786V60.0973C104.715 58.5505 103.034 57.5892 101.701 58.3735L82.4341 69.7069V60.0973C82.4341 58.5505 80.7533 57.5892 79.4201 58.3735L58.7478 70.5336V60.1151C58.7478 58.5605 57.0519 57.6003 55.7188 58.4001L43.3037 65.8492C42.8301 66.1334 42.6766 66.7476 42.9607 67.2212C43.2448 67.6948 43.8591 67.8484 44.3327 67.5642L56.7478 60.1151V71.28H33.6776V60.0973C33.6776 58.5505 31.9969 57.5892 30.6636 58.3735L8.49021 71.4166C8.0455 71.6782 7.87756 72.2303 8.08568 72.69C8.02818 72.8765 7.99723 73.0746 7.99723 73.28V83.4248V128V138.142C7.99723 139.247 8.89266 140.142 9.99723 140.142H142.674L142.687 140.143C142.696 140.143 142.705 140.143 142.714 140.143L142.722 140.143C143.274 140.143 143.722 139.696 143.722 139.143V139.142V129C143.722 128.794 143.691 128.596 143.633 128.409C143.691 128.283 143.723 128.143 143.723 127.996V89.9928C143.723 88.8882 142.827 87.9928 141.723 87.9928H137.424C137.442 87.8847 137.442 87.7718 137.422 87.6579L129.817 44.1974C130.043 44.0141 130.187 43.7344 130.187 43.4212V34.2775C130.187 33.7252 129.739 33.2775 129.187 33.2775H115.864C115.312 33.2775 114.864 33.7252 114.864 34.2775V43.4212ZM109.467 87.9928L117.091 44.4212H127.826L135.45 87.9928H109.467ZM31.6776 60.0973V71.28H12.6672L31.6776 60.0973ZM80.4341 60.0973V70.8833L79.7598 71.28H61.4236L80.4341 60.0973ZM102.715 71.28V60.0973L83.7044 71.28H102.715ZM9.99723 84.4248H26.4093C26.9616 84.4248 27.4093 83.9771 27.4093 83.4248C27.4093 82.8725 26.9616 82.4248 26.4093 82.4248H9.99723V73.28H102.719V127H94.9681V96.7213C94.9681 95.6168 94.0727 94.7213 92.9681 94.7213H72.6806C71.5761 94.7213 70.6807 95.6168 70.6807 96.7213V102.897C70.6804 102.906 70.6803 102.915 70.6803 102.924C70.6803 102.933 70.6804 102.942 70.6807 102.951V111.761C70.6804 111.77 70.6803 111.779 70.6803 111.788L70.6804 111.805L70.6807 111.815V122.398L70.6805 122.406L70.6803 122.425C70.6803 122.434 70.6804 122.443 70.6807 122.452V127H9.99723V84.4248ZM85.6099 103.924H72.6806V110.788H78.6451H85.6099C86.1622 110.788 86.6099 111.236 86.6099 111.788C86.6099 112.34 86.1622 112.788 85.6099 112.788H78.6451H72.6806V121.425H85.6099C86.1622 121.425 86.6099 121.873 86.6099 122.425C86.6099 122.978 86.1622 123.425 85.6099 123.425H72.6806V127H92.9681V96.7213H72.6806V101.924H85.6099C86.1622 101.924 86.6099 102.372 86.6099 102.924C86.6099 103.476 86.1622 103.924 85.6099 103.924ZM141.723 127V89.9928H104.719V97.7467H114.863C115.415 97.7467 115.863 98.1945 115.863 98.7467C115.863 99.299 115.415 99.7467 114.863 99.7467H104.719V127H115.34C115.288 126.879 115.26 126.747 115.26 126.607V110.892C115.26 109.787 116.155 108.892 117.26 108.892H130.582C131.687 108.892 132.582 109.787 132.582 110.892V126.607C132.582 126.747 132.554 126.879 132.502 127H141.722H141.723ZM130.662 127H117.18C117.231 126.879 117.26 126.747 117.26 126.607V110.892H130.582V126.607C130.582 126.747 130.611 126.879 130.662 127ZM9.99723 138.142V129H141.722V138.142H9.99723ZM124.614 97.7467C124.062 97.7467 123.614 98.1945 123.614 98.7467C123.614 99.299 124.062 99.7467 124.614 99.7467H135.758C136.31 99.7467 136.758 99.299 136.758 98.7467C136.758 98.1945 136.31 97.7467 135.758 97.7467H124.614ZM36.8565 82.4248C36.3042 82.4248 35.8565 82.8725 35.8565 83.4248C35.8565 83.9771 36.3042 84.4248 36.8565 84.4248H65.4123C65.9646 84.4248 66.4123 83.9771 66.4123 83.4248C66.4123 82.8725 65.9646 82.4248 65.4123 82.4248H36.8565ZM18.3514 94.9605C17.2468 94.9605 16.3514 95.856 16.3514 96.9605V108.89C16.3514 109.995 17.2468 110.89 18.3514 110.89H35.8529C36.9575 110.89 37.8529 109.995 37.8529 108.89V96.9605C37.8529 95.856 36.9575 94.9605 35.8529 94.9605H18.3514ZM18.3514 96.9605H35.8529V108.89H18.3514V96.9605ZM42.8182 96.9605C42.8182 95.856 43.7136 94.9605 44.8182 94.9605H62.3197C63.4243 94.9605 64.3197 95.856 64.3197 96.9605V108.89C64.3197 109.995 63.4243 110.89 62.3197 110.89H44.8182C43.7136 110.89 42.8182 109.995 42.8182 108.89V96.9605ZM62.3197 96.9605H44.8182V108.89H62.3197V96.9605Z" fill="white"/>
</svg>
